<?xml version="1.0" encoding="UTF-8"?>
<svg viewBox="0 0 180 180" version="1.1" xmlns="http://www.w3.org/2000/svg" xmlns:xlink="http://www.w3.org/1999/xlink">
    <!-- Generator: Sketch 51.2 (57519) - http://www.bohemiancoding.com/sketch -->
    <title>icon/缺省图/搜索为空</title>
    <desc>Created with Sketch.</desc>
    <defs>
        <linearGradient x1="50%" y1="100%" x2="50%" y2="3.061617e-15%" id="linearGradient-1">
            <stop stop-color="#F2F2F2" offset="0%"></stop>
            <stop stop-color="#E8E8E8" offset="100%"></stop>
        </linearGradient>
        <linearGradient x1="50%" y1="100%" x2="50%" y2="3.061617e-15%" id="linearGradient-2">
            <stop stop-color="#F2F2F2" stop-opacity="0.52490942" offset="0%"></stop>
            <stop stop-color="#E8E8E8" offset="100%"></stop>
        </linearGradient>
        <linearGradient x1="50%" y1="100%" x2="50%" y2="3.061617e-15%" id="linearGradient-3">
            <stop stop-color="#F2F2F2" stop-opacity="0.592221467" offset="0%"></stop>
            <stop stop-color="#E8E8E8" offset="100%"></stop>
        </linearGradient>
        <radialGradient cx="51.7265916%" cy="0%" fx="51.7265916%" fy="0%" r="84.7010827%" gradientTransform="translate(0.517266,0.000000),scale(0.204908,1.000000),rotate(90.000000),scale(1.000000,4.107255),translate(-0.517266,-0.000000)" id="radialGradient-4">
            <stop stop-color="#FFFFFF" offset="0%"></stop>
            <stop stop-color="#E3E4E6" stop-opacity="0.92" offset="0%"></stop>
            <stop stop-color="#EDEEF0" stop-opacity="0.85" offset="58.8773958%"></stop>
            <stop stop-color="#FFFFFF" stop-opacity="0" offset="100%"></stop>
        </radialGradient>
    </defs>
    <g id="UI-" stroke="none" stroke-width="1" fill="none" fill-rule="evenodd">
        <g id="搜索-结果为空" transform="translate(-268.000000, -1251.000000)">
            <g id="搜索为空" transform="translate(268.000000, 1251.000000)">
                <g id="icon/缺省图/搜索为空">
                    <g id="搜索为空">
                        <rect id="Rectangle-50" x="0" y="0" width="180" height="180"></rect>
                        <g id="Group-3" transform="translate(1.428571, 37.428571)">
                            <g id="treecloud" transform="translate(7.285714, -0.000000)">
                                <path d="M0.496759257,33.8112272 C0.825349868,32.0306922 1.92790383,31.1404247 3.80442115,31.1404247 C5.68093847,31.1404247 6.89237434,31.529013 7.43872877,32.3061897 C7.3168497,28.7687299 8.64307254,27 11.4173973,27 C14.191722,27 16.2098187,28.7687299 17.4716873,32.3061897 C20.4235772,30.2210695 22.6174003,30.2210695 24.0531567,32.3061897 C25.4889131,34.3913098 27.1139286,35.9035158 28.9282031,36.8428076 L33.362342,37.8541074 C15.7902178,37.8541074 5.63669359,37.8541074 2.90176942,37.8541074 C0.166845238,37.8541074 -0.634824814,36.5064807 0.496759257,33.8112272 Z" id="Path-6" fill="url(#linearGradient-1)" opacity="0.800000012"></path>
                                <path d="M127.496759,6.81122724 C127.82535,5.03069221 128.927904,4.14042469 130.804421,4.14042469 C132.680938,4.14042469 133.892374,4.52901302 134.438729,5.30618969 C134.31685,1.7687299 135.643073,2.60631072e-16 138.417397,0 C141.191722,0 143.209819,1.7687299 144.471687,5.30618969 C147.423577,3.22106954 149.6174,3.22106954 151.053157,5.30618969 C152.488913,7.39130983 154.113929,8.9035158 155.928203,9.84280761 L160.362342,10.8541074 C142.790218,10.8541074 132.636694,10.8541074 129.901769,10.8541074 C127.166845,10.8541074 126.365175,9.5064807 127.496759,6.81122724 Z" id="Path-6" fill="url(#linearGradient-1)" opacity="0.800000012"></path>
                                <path d="M17.1573604,93.6935346 L17.1573604,104.142857 L14.9238579,104.142857 L14.9238579,93.8030795 C12.452493,93.6214623 9.55398846,92.5639941 8.53489626,89.5502219 C7.40235412,86.2009431 9.6674384,83.7228064 10.3960591,82.6151029 C11.1246798,81.5073994 10.9802482,81.0428719 9.65020858,79.6329247 C8.32016895,78.2229775 9.65020858,74.9597923 10.3788293,74.3916789 C11.10745,73.8235654 11.8892852,74.0224847 11.5216275,71.801059 C11.1539697,69.5796333 12.0637269,68.0461728 13.4531512,67.0938674 C14.8425754,66.141562 16.4641511,66.2745384 18.3894728,67.0938674 C19.6730205,67.6400868 20.4420674,69.0515303 20.6966135,71.3281981 C20.1024908,72.4656193 20.2876432,73.2628663 21.2520707,73.719939 C23.7631899,75.9500002 22.6083317,78.8033901 22.0336921,79.4968496 C21.2383091,80.4455372 21.1849147,81.5835222 21.8735089,82.9108046 C23.5487042,84.6386092 24.2535211,86.5864019 23.9879595,88.7541827 C23.6534615,91.4846913 19.8975809,93.2104753 17.1573604,93.6935346 Z" id="Combined-Shape" fill="url(#linearGradient-2)"></path>
                                <path d="M160.963572,83.6323477 L160.963572,94.4962214 L158.641461,94.4962214 L158.641461,83.7462385 C156.07205,83.5574161 153.058555,82.4579954 151.999033,79.3246593 C150.82156,75.8425061 153.176506,73.2660555 153.934033,72.1144065 C154.69156,70.9627576 154.541398,70.4798012 153.158592,69.0139178 C151.775787,67.5480344 153.158592,64.1553904 153.916119,63.5647384 C154.673646,62.9740864 155.486499,63.1808974 155.104255,60.8713421 C154.722011,58.5617867 155.667861,56.96749 157.112407,55.9774043 C158.556954,54.9873185 160.242861,55.1255704 162.244565,55.9774043 C163.579035,56.5452935 164.378592,58.0127326 164.643236,60.3797216 C164.025543,61.5622671 164.218041,62.3911429 165.22073,62.8663489 C167.831471,65.1848823 166.630797,68.1514734 166.03336,68.8724442 C165.206422,69.8587687 165.150909,71.0419004 165.866822,72.4218394 C167.608477,74.2181904 168.341255,76.243257 168.065158,78.4970392 C167.71739,81.3358739 163.812504,83.1301242 160.963572,83.6323477 Z" id="Combined-Shape" fill="url(#linearGradient-3)"></path>
                            </g>
                            <path d="M87.9183559,136.571429 C146.67976,136.571429 176.209676,124.571429 176.508103,100.571429 C155.664873,100.571429 127.162172,100.571429 91,100.571429 C54.8378284,100.571429 24.7819206,100.571429 0.83227655,100.571429 C0.128259025,124.571429 29.1569521,136.571429 87.9183559,136.571429 Z" id="Oval-10" fill="url(#radialGradient-4)"></path>
                        </g>
                        <g id="人" transform="translate(127.000000, 85.000000)">
                            <path d="M4.2118892,5.8576174 C2.88887439,5.33082118 2.2325149,3.82531596 2.74644867,2.49482898 C3.26124042,1.16434201 4.75070456,0.51303032 6.07371937,1.03982654 C7.39759217,1.56662276 8.05309367,3.07212798 7.5391599,4.40261496 C7.13419039,5.45098297 6.12262459,6.077914 5.06386955,6.03786007 L4.52333821,7.43800606 C4.43668159,7.66178561 4.18786558,7.77149854 3.96650513,7.68442478 C3.74600266,7.59648029 3.63789639,7.3439664 3.724553,7.12018685 L4.2118892,5.8576174 Z M5.76398633,1.8435173 C6.64599621,2.19442453 7.0835692,3.19838492 6.74037469,4.08479575 C6.39803818,4.97207731 5.40449009,5.40570461 4.52248022,5.05479738 C3.64047035,4.70389015 3.20289736,3.69992975 3.54523387,2.81264819 C3.88842838,1.92623736 4.88111848,1.49173933 5.76398633,1.8435173 Z" id="Ellipse-1" fill="#919294" transform="translate(5.142857, 4.285714) rotate(-10.000000) translate(-5.142857, -4.285714) "></path>
                            <path d="M8.75366414,30 C8.75366414,30 8.34363412,35 8.75366414,38.8888889 C8.95391135,40.7884444 8.75366414,54 8.75366414,54 L12.5678969,54 C12.5678969,54 13.2926011,51.2968889 13.5214551,47.7777778 C13.6644888,45.5742222 13.2010595,42.1644444 13.5214551,39.7777778 C14.0497263,35.8408889 15.4285714,31.7777778 15.4285714,31.7777778 L8.75366414,30 Z" id="Shape-25-copy" fill="#4577C9"></path>
                            <path d="M5.32509271,30 C5.32509271,30 4.91506269,35 5.32509271,38.8888889 C5.52533993,40.7884444 6.27865089,54 6.27865089,54 L9.13932545,54 C9.13932545,54 9.86402967,51.2968889 10.0928836,47.7777778 C10.2359174,45.5742222 9.77248808,42.1644444 10.0928836,39.7777778 C10.6211549,35.8408889 12,31.7777778 12,31.7777778 L5.32509271,30 Z" id="Shape-25" fill="#5789D9"></path>
                            <path d="M3.74434828,7.18496924 C3.74434828,7.18496924 4.1389332,6.69727481 4.95452613,6.91156479 C5.77099983,7.12585477 6,8.46742496 6,8.46742496 L4.42885775,9.42857143 L3.42857143,8.46742496 L3.74434828,7.18496924 Z" id="Shape-9" fill="#F9C7C7"></path>
                            <rect id="Rectangle-831-copy" fill="#F9C7C7" x="10.2857143" y="54" width="2.57142857" height="2.57142857"></rect>
                            <rect id="Rectangle-831" fill="#F9C7C7" x="6" y="54" width="2.57142857" height="2.57142857"></rect>
                            <path d="M12.8559544,55.8700058 C12.8559544,55.8700058 12.9229218,55.6501671 12.051487,55.8700058 C11.327724,56.052925 10.2802852,55.7684772 10.2802852,55.7684772 C10.2802852,55.7684772 10.0845343,55.617443 9.63722645,55.8196611 C8.85508158,56.1729133 6.86666498,56.2526258 6.36440949,56.6327286 C5.54448814,57.2544862 6.36440949,57.4466353 6.36440949,57.4466353 L10.4416938,58.2857143 L12.8559544,58.2857143 L12.8559544,55.8700058 Z" id="Shape-6-copy" fill="#666A6D"></path>
                            <path d="M8.57024007,55.8700058 C8.57024007,55.8700058 8.63720747,55.6501671 7.76577273,55.8700058 C7.0420097,56.052925 5.9945709,55.7684772 5.9945709,55.7684772 C5.9945709,55.7684772 5.79882004,55.617443 5.35151216,55.8196611 C4.56936729,56.1729133 2.58095069,56.2526258 2.0786952,56.6327286 C1.25877385,57.2544862 2.0786952,57.4466353 2.0786952,57.4466353 L6.1559795,58.2857143 L8.57024007,58.2857143 L8.57024007,55.8700058 Z" id="Shape-6" fill="#72787D"></path>
                            <path d="M12.7534507,13.4116928 C11.9930113,13.6431155 11.451325,13.7876159 11.1283921,13.845194 C10.6217927,13.9355194 10.0032157,14.1570911 9.27266118,14.5099092 L5.08542514,14.5099092 C3.55186793,14.4020167 2.78508933,14.1448282 2.78508933,13.7383438 C2.78508933,13.3318594 3.43784233,12.0340513 4.74334834,9.84491962 L3.8118704,8.57142857 L0.25444531,13.7383438 C0.25444531,13.7383438 -0.486721292,14.8118949 0.560864012,15.7233327 C1.6093223,16.6347704 5.84855083,18.330657 5.84855083,18.330657 C5.84855083,18.330657 4.83487765,29.3269934 5.08542514,30.9580346 C5.39882774,32.9961607 11.6602462,34.095559 15.740591,32.3393301 C15.740591,26.5203991 16.4095235,18.339941 12.7534507,13.4116928 Z" id="Shape-21" fill="#B9BFC3"></path>
                            <path d="M13.2087869,6.87842611 C12.4945079,6.87842611 15.4352919,8.56186033 16.241673,9.08112285 C16.9376784,9.46308884 16.241673,9.72090118 15.7039212,10.4751076 C14.9157841,11.9950506 12.4805628,13.6350926 12.4805628,13.6350926 L14.6815344,18.5666518 C14.6815344,18.5666518 17.0682272,13.6172939 18.3042525,10.9936981 C18.7703845,10.1382351 19.4353752,7.90667385 18.3042525,7.42173546 C17.1731297,6.93679707 14.1209827,5.11821418 14.1209827,5.11821418 C14.1209827,5.11821418 13.7685907,5.83623438 13.2087869,6.87842611 Z" id="Shape-26" fill="#B9BFC3"></path>
                            <path d="M14.5714286,6.21549174 C14.0022341,5.89949089 13.5955971,5.93103192 13.3515178,6.31011482 C12.6213172,5.66882487 12,6.67274587 12,6.85714286 C12,7.04153984 13.084842,7.71428571 13.5978568,7.71428571 C13.9398667,7.71428571 14.2643906,7.21468772 14.5714286,6.21549174 Z" id="Path-3" fill="#F9C7C7"></path>
                            <path d="M11.6910177,6.50162777 C10.227936,5.01061496 8.99947978,4.74669623 8.00564913,5.7098716 C6.66854971,7.7597596 6,9.12558715 6,9.80735425 C6,10.8300049 7.22860834,12.656409 8.85551958,12.656409 C9.94012707,12.656409 10.9716306,12.4179378 11.95003,11.9409954 C13.2404369,9.80576312 13.1540995,7.99264058 11.6910177,6.50162777 Z" id="Path-14" fill="#F9C7C7"></path>
                            <path d="M12,12 L12,14.1327087 C11.4095273,14.376132 10.9809559,14.5223719 10.7142857,14.5714286 C10.4476155,14.6204852 10.081232,14.6204852 9.61513499,14.5714286 L9.42857143,12.2752697 L12,12 Z" id="Path-15" fill="#F9C7C7"></path>
                            <path d="M12.60732,3.95441853 C14.1763013,4.517734 14.8052751,5.19212235 14.4942415,5.97758358 C14.0276911,7.15577543 12.1911419,6.77370224 11.554054,6.77370224 C10.9169661,6.77370224 9.87674828,8.11070942 9.68830742,8.86025555 C9.49986656,9.60980168 8.97627681,9.83083473 8.97627681,9.602888 C8.97627681,9.37494128 9.05446438,8.51246792 8.5962001,8.32246321 C8.13793583,8.1324585 7.54627198,8.62639218 7.74988521,9.11809693 C7.95349844,9.60980168 8.33599393,10.0398487 8.33599393,10.5527288 C8.33599393,11.065609 7.91450544,11.2675536 7.74988521,11.065609 C7.58526498,10.8636644 6.85714286,9.73171581 6.85714286,7.90876482 C6.85714286,6.08581383 7.04770785,5.23584035 8.07882223,4.04706082 C8.76623182,3.25454113 10.2757311,3.22366036 12.60732,3.95441853 Z" id="Path-13" fill="#7D8085" transform="translate(10.714286, 7.285714) scale(-1, 1) rotate(-22.000000) translate(-10.714286, -7.285714) "></path>
                        </g>
                        <g id="paper" transform="translate(47.285714, 55.000000)">
                            <path d="M13.1381074,74.4761905 C12.4418122,77.50721 9.80521151,79.7619048 6.65898618,79.7619048 C3.51276084,79.7619048 0.876160195,77.50721 0.179864938,74.4761905 L-5.77315973e-14,74.4761905 L-5.77315973e-14,4 C-5.80021388e-14,1.790861 1.790861,4.05812251e-16 4,0 L60.2396313,0 C62.4487703,-4.33003142e-15 64.2396313,1.790861 64.2396313,4 L64.2396313,74.4761905 L13.1381074,74.4761905 Z" id="Combined-Shape" fill="#E8E9EB"></path>
                            <path d="M13.7511521,66.8095238 L75.8571429,66.8095238 L75.8571429,69.7619048 C75.8571429,75.2847523 71.3799904,79.7619048 65.8571429,79.7619048 L3.75115207,79.7619048 C9.27399957,79.7619048 13.7511521,75.2847523 13.7511521,69.7619048 L13.7511521,66.8095238 Z" id="Combined-Shape" fill="#D9DBDC"></path>
                        </g>
                    </g>
                </g>
            </g>
        </g>
    </g>
</svg>