<?xml version="1.0" encoding="UTF-8"?>
<svg width="180px" height="180px" viewBox="0 0 180 180" version="1.1" xmlns="http://www.w3.org/2000/svg" xmlns:xlink="http://www.w3.org/1999/xlink">
    <!-- Generator: Sketch 51.2 (57519) - http://www.bohemiancoding.com/sketch -->
    <title>网络中断</title>
    <desc>Created with Sketch.</desc>
    <defs>
        <linearGradient x1="50%" y1="100%" x2="50%" y2="3.061617e-15%" id="linearGradient-1">
            <stop stop-color="#FAFAFB" stop-opacity="0.310688406" offset="0%"></stop>
            <stop stop-color="#DCDEE0" offset="100%"></stop>
        </linearGradient>
        <linearGradient x1="50%" y1="166.642834%" x2="50%" y2="3.061617e-15%" id="linearGradient-2">
            <stop stop-color="#EEEDED" stop-opacity="0.209776947" offset="0%"></stop>
            <stop stop-color="#E0E0E0" offset="100%"></stop>
        </linearGradient>
    </defs>
    <g id="Page-1" stroke="none" stroke-width="1" fill="none" fill-rule="evenodd">
        <g id="等待和出错页面" transform="translate(-1207.000000, -2850.000000)">
            <g id="网络中断" transform="translate(1207.000000, 2850.000000)">
                <g>
                    <g>
                        <g id="backgroud" transform="translate(3.831390, 13.233984)">
                            <path d="M4.29864477e-15,126.396081 C1.41327587,97.7471983 37.424511,74.805844 81.6414668,74.805844 C125.858423,74.805844 161.869658,97.7471983 163.282934,126.396081 L4.4408921e-15,126.396081 Z" id="Combined-Shape" fill="url(#linearGradient-1)"></path>
                            <path d="M47.8000745,89.7523955 C49.3452021,89.0929003 50.9316018,89.3405335 51.3434639,90.3061307 C51.7561858,91.271728 50.8378796,92.5889987 49.2936118,93.2484939 C47.7484842,93.9079891 46.1620844,93.6594961 45.7502224,92.6947587 C45.3375005,91.7291614 46.2558067,90.4118907 47.8000745,89.7523955 Z" id="Ellipse-609" fill-opacity="0.6" fill="#E1E3E5"></path>
                            <path d="M107.988685,97.4909311 C109.533812,96.8314359 111.120212,97.079069 111.532074,98.0446663 C111.944796,99.0102636 111.02649,100.327534 109.482222,100.98703 C107.937094,101.646525 106.350694,101.398032 105.938832,100.433294 C105.526111,99.467697 106.444417,98.1504263 107.988685,97.4909311 Z" id="Ellipse-609" fill-opacity="0.6" fill="#E1E3E5"></path>
                            <path d="M91.5915875,75.8926783 C92.973346,76.4163192 93.8959514,77.5100322 93.6526174,78.3346162 C93.4084237,79.1592001 92.0902931,79.4033939 90.7085346,78.8788932 C89.3259162,78.3552523 88.4033108,77.2615392 88.6475046,76.4369553 C88.8908386,75.6123713 90.2089691,75.3690374 91.5915875,75.8926783 Z" id="Ellipse-609-copy" fill-opacity="0.501961" fill="#E1E3E5"></path>
                            <g id="Ellipse-608" transform="translate(150.414203, 0.000000)">
                                <circle id="Oval" fill="url(#linearGradient-2)" transform="translate(10.375370, 8.598373) rotate(-10.000000) translate(-10.375370, -8.598373) " cx="10.3753699" cy="8.59837287" r="6.87869829"></circle>
                                <path d="M2.27570269,7.56656812 C2.27570269,7.56656812 0.676405332,8.90619462 0.856971163,10.4900149 C1.03753699,12.0738352 4.8380178,12.6301499 10.7966902,10.5983544 C16.8069528,8.54850231 18.5524225,5.49693977 17.0906991,3.85980958 C16.0330993,3.44966719 13.6427516,3.18053812 13.6427516,3.18139796 C13.6427516,3.18139796 21.7768124,2.87615572 17.9677332,7.76519054 C14.8637206,11.7488167 10.9944528,12.9293733 5.82683068,13.4134617 C1.36427516,13.8322024 -2.56948043,11.2251758 2.27570269,7.56656812 Z" id="Shape-16" fill-opacity="0.6" fill="#E9E8E8"></path>
                            </g>
                        </g>
                        <g id="radio2" transform="translate(49.402766, 72.562757)">
                            <path d="M7.85136179,6.87869829 L0,22.3894269 C2.95333269,24.9363775 7.07113566,26.2098528 12.3534089,26.2098528 C17.6356822,26.2098528 21.7534851,24.9363775 24.7068178,22.3894269 L17.6031198,6.87869829 L7.85136179,6.87869829 Z" id="Path-77" fill="#D2D4D6"></path>
                            <circle id="Oval-17" fill="#AFB1B3" cx="13.7573966" cy="6.01886101" r="6.01886101"></circle>
                        </g>
                        <g id="radio" transform="translate(33.925695, 19.252845)">
                            <path d="M2.03415722,27.3993572 L69.1014656,27.3993572 C69.1014656,45.919483 54.0879372,60.9330114 35.5678114,60.9330114 C17.0476856,60.9330114 2.03415722,45.919483 2.03415722,27.3993572 Z" id="Combined-Shape" fill="#D2D4D6" transform="translate(35.567811, 44.166184) rotate(45.000000) translate(-35.567811, -44.166184) "></path>
                            <ellipse id="Oval-16" fill="#EBEBED" transform="translate(46.589223, 32.831826) rotate(45.000000) translate(-46.589223, -32.831826) " cx="46.5892225" cy="32.8318259" rx="33.5336542" ry="12.8975593"></ellipse>
                            <path d="M54.3881361,27.3540036 C54.320209,27.1252869 54.2840958,26.8836726 54.2840958,26.63346 C54.2840958,25.2216071 55.4182212,24.075444 56.8145969,24.075444 C58.2109727,24.075444 59.3450981,25.2216071 59.3450981,26.63346 C59.3450981,28.0453128 58.2109727,29.1914759 56.8145969,29.1914759 C56.5420285,29.1914759 56.2789183,29.1476242 56.0312852,29.0650798 L47.7777071,38.6926779 C47.7777071,38.6926779 43.8482507,38.8586265 44.8860743,35.0383694 L54.3881361,27.3540036 Z" id="Shape-13" fill="#D6D7D9"></path>
                        </g>
                        <g id="wifi" transform="translate(88.877551, 22.020408)" fill="#DCDEE0">
                            <path d="M0.937567936,0.837805952 C13.667459,-0.696143768 25.2529066,8.57118251 26.8152309,21.536669 C26.8900368,22.1583313 26.9407672,22.778274 26.9605434,23.3982167 L24.3277216,23.3569445 C24.3088052,22.8565192 24.2666732,22.3543742 24.2056248,21.8513694 C22.8204269,10.3536252 12.5462311,2.13530042 1.25828724,3.49556301 L0.937567936,0.837805952 Z M1.76043222,7.66749352 C11.1894079,6.53078863 19.755107,13.2538564 20.890952,22.6836919 L20.9494209,23.3036346 L18.2271761,23.2615026 L18.2031007,23.0069907 C17.2452419,15.0620942 10.0294874,9.39834598 2.08459088,10.3553449 L1.76043222,7.66749352 Z M2.4818357,13.6536807 L2.90745516,13.5917724 C8.80077992,12.8815468 14.1541269,17.0835716 14.8634926,22.9768964 L14.8858484,23.2090525 L12.2831209,23.1686401 C11.690693,18.7499363 7.65461682,15.6175491 3.21613675,16.1523679 L2.79137713,16.225454 L2.4818357,13.6536807 Z" id="Shape-15"></path>
                        </g>
                        <g id="man" transform="translate(95.833980, 69.983245)">
                            <polygon id="Rectangle-8311" fill="#F9C7C7" points="39.0391923 26.5830409 41.5929091 26.5830409 41.5929091 28.3806493 39.0391923 28.3806493"></polygon>
                            <polygon id="Path-10" fill="#F9C7C7" points="31.550986 29.1457634 32.4177679 30.3372874 34.3173163 30.3372874 33.5603879 29.1457634"></polygon>
                            <path d="M2.25048654,25.1744107 C2.51553566,25.7411959 2.39135327,25.8463864 1.72141297,26.1125538 C1.05147267,26.3787212 -0.394726809,26.7779126 0.180504335,27.5147932 C0.75573548,28.2516737 3.61985348,27.5147932 3.61985348,27.5147932 L4.47969077,25.7951186 L2.25048654,25.1744107 Z" id="Shape-23" fill="#F9C7C7"></path>
                            <path d="M15.5162005,3.98028694 C14.0280367,2.69089567 12.6705449,2.2918595 11.443725,2.78317846 C10.2996549,4.89748273 9.72761989,6.2494226 9.72761989,6.83899805 C9.72761989,7.72336122 10.393271,9.48542518 12.0480729,9.48542518 C13.1512741,9.48542518 14.3951342,9.21832296 15.7796531,8.68411852 C17.0921818,6.83762208 17.0043643,5.26967822 15.5162005,3.98028694 Z" id="Path-14" fill="#F9C7C7" transform="translate(13.214968, 6.032631) scale(-1, 1) translate(-13.214968, -6.032631) "></path>
                            <path d="M14.4911892,1.89213579 C15.66036,2.38880426 16.0987053,2.99700793 15.8062252,3.71674679 C15.367505,4.79635508 14.0998366,4.47551987 13.5007517,4.47551987 C12.9016668,4.47551987 11.9234992,5.70065486 11.746299,6.38748376 C11.5690989,7.07431267 11.0767419,7.27685108 11.0767419,7.06797748 C11.0767419,6.85910388 11.1502655,6.06879677 10.7193372,5.89469044 C10.2884089,5.72058411 9.73203845,6.17318858 9.92350591,6.62375062 C10.1149734,7.07431267 10.4746526,7.46837611 10.4746526,7.93834172 C10.4746526,8.40830732 10.0783064,8.59335449 9.92350591,8.40830732 C9.76870547,8.22326015 9.08401666,7.1860258 9.08401666,5.51560768 C9.08401666,3.84518956 9.26321423,3.06633643 10.2328215,1.97702635 C10.8792263,1.25081964 12.2986822,1.22252278 14.4911892,1.89213579 Z" id="Path-13" fill="#7D8085" transform="translate(12.489015, 4.944690) rotate(-22.000000) translate(-12.489015, -4.944690) "></path>
                            <polygon id="Shape-211" fill="#4F7DC8" points="18.9164203 25.7951186 39.5525152 25.7951186 39.5525152 28.3746305 16.3369085 30.094305"></polygon>
                            <path d="M41.4397626,28.5309815 C41.4397626,28.5309815 41.3959109,26.4905327 41.3959109,26.4905327 C41.3959109,26.4905327 42.5661495,25.5935935 42.7475751,25.1344404 C43.0657149,24.3304925 43.0846314,23.1937876 43.445763,22.6692869 C44.0356114,21.8128889 44.275506,22.6237155 44.275506,22.6237155 L44.4517726,25.8506848 C44.4517726,25.8871929 44.4517726,26.3574603 44.4517726,27.2614869 C44.4517726,28.617527 44.6148442,28.5309815 43.0234713,28.5309815 C42.5289824,28.5309815 42.0010795,28.5309815 41.4397626,28.5309815 Z" id="Shape-61" fill="#72787D"></path>
                            <path d="M34.2566414,30.094305 L32.37267,30.5196037 L32.37267,31.9756889 C32.4173485,32.5513301 32.5356438,32.9107067 32.727556,33.0538188 C32.9194682,33.1969309 33.3397043,33.2391461 33.9882642,33.1804642 L39.1350368,33.0538188 C39.6990308,32.6593167 39.6915774,32.3175572 39.1126767,32.0285403 C38.533776,31.7395234 37.5641892,31.4210969 36.2039164,31.0732607 L34.2566414,30.094305 Z" id="Shape-8" fill="#73777D"></path>
                            <path d="M15.7375411,1.12145005 C13.9666013,1.12153947 12.9664395,1.37168871 12.737056,1.87189776 C12.5076724,2.37210681 12.9349686,2.67773646 14.0189447,2.78878672 L15.7375411,2.62221134 L15.7375411,1.12145005 Z" id="Path" fill="#F9C7C7"></path>
                            <path d="M1.71967457,25.8738607 L4.26858944,26.6486361 L10.4753026,17.4088659 L9.36382919,25.8738607 C13.4164397,26.3499418 16.1268774,26.3499418 17.4951423,25.8738607 C18.8634072,25.3977795 19.4961287,24.7777552 19.3933069,24.0137878 L17.4951423,13.6622513 C20.6132204,9.93424157 22.3123793,7.11983809 22.5926188,5.2190409 C23.0129781,2.36784511 23.2806126,1.10515024 20.8022404,0.604358215 C19.1499922,0.270496864 17.3535296,0.43742754 15.4128524,1.10515024 L15.4754367,2.83097671 L18.748696,2.49948696 C20.4472631,2.34120703 20.9414121,3.24772501 20.2311428,5.2190409 C19.5208736,7.19035679 18.2430941,8.89894325 16.3978043,10.3448003 C15.7202504,10.7480196 15.1090934,11.0572986 14.5643333,11.2726374 C14.0195732,11.4879761 13.4866531,11.4879761 12.9655728,11.2726374 C12.2532037,11.0724685 11.644249,11.1847012 11.1387087,11.6093354 C10.6331683,12.0339695 7.4934903,16.7888113 1.71967457,25.8738607 Z" id="Path-9" fill="#B9BFC3"></path>
                            <path d="M14.8738989,9.20279518 L14.9804645,11.4434727 C15.0907432,11.8411191 14.7863977,12.0787728 14.0674282,12.1564336 C13.7130163,12.1564336 13.3161335,11.936861 12.8767799,11.4977159 L12.3204291,8.99048224 L14.8738989,9.20279518 Z" id="Path-7" fill="#F9C7C7"></path>
                            <path d="M9.45821016,25.8905165 C9.45821016,25.8905165 8.15211732,29.3014911 10.3180474,30.189703 C15.4443973,32.2920051 19.055808,29.0822646 19.055808,29.0822646 L24.4335675,21.5760476 L31.0412762,29.0822646 L31.7060555,29.8897339 L34.4806253,29.0822646 L26.7420897,18.7642172 C26.7420897,18.7642172 25.9734424,17.3616277 24.1625779,17.9043799 C22.3517134,18.447132 10.3180474,25.8905165 10.3180474,25.8905165 L9.45821016,25.8905165 Z" id="Shape-19" fill="#5789D9"></path>
                        </g>
                    </g>
                </g>
            </g>
        </g>
    </g>
</svg>