<svg xmlns="http://www.w3.org/2000/svg" xmlns:xlink="http://www.w3.org/1999/xlink" viewBox="0 0 780 132">
  <defs>
    <rect id="底部-a" width="780" height="132" x="0" y="0"/>
    <linearGradient id="底部-c" x1="62.331%" x2="84.268%" y1="47.206%" y2="50.419%">
      <stop offset="0%" stop-color="#FFE8B2"/>
      <stop offset="100%" stop-color="#FFD7D6"/>
    </linearGradient>
    <linearGradient id="底部-d" x1="24.306%" x2="64.795%" y1="48.643%" y2="51.154%">
      <stop offset="0%" stop-color="#FFE7DD"/>
      <stop offset="100%" stop-color="#FFCA93"/>
    </linearGradient>
    <linearGradient id="底部-e" x1="37.186%" x2="61.788%" y1="50.023%" y2="50.108%">
      <stop offset="0%" stop-color="#FFE7DD" stop-opacity="0"/>
      <stop offset="17.027%" stop-color="#FFE0C9"/>
      <stop offset="55.003%" stop-color="#FFDBBD"/>
      <stop offset="95.884%" stop-color="#FFD5AF"/>
      <stop offset="100%" stop-color="#FFCA93" stop-opacity="0"/>
    </linearGradient>
  </defs>
  <g fill="none" fill-rule="evenodd">
    <mask id="底部-b" fill="#fff">
      <use xlink:href="#底部-a"/>
    </mask>
    <g mask="url(#底部-b)" opacity=".7">
      <g transform="translate(-91 36)">
        <path fill="#F1A753" d="M70,126.441321 C265.68379,53.9255395 420.582223,22.7325715 534.695299,32.8624176 C705.864913,48.0571867 938.780167,133.524537 979.727068,149.027774 C1007.025,159.363265 755.602714,172.026355 225.460203,187.017043 L70,126.441321 Z" opacity=".113"/>
        <path fill="#C7CCFB" d="M711,30.6064172 L711,44 L709,44 L709,30.9850926 C708.858369,30.9950129 708.722287,31 708.592652,31 C705.953788,31 702.460601,29.9443914 701.315108,26.155627 C700.169616,22.3668625 702.460601,19.5635497 703.197553,18.3104956 C703.934505,17.0574415 703.788422,16.5319596 702.443174,14.937002 C701.097926,13.3420443 702.443174,9.65067055 703.180126,9.00801036 C703.917078,8.36535018 704.707853,8.59037134 704.335991,6.07745458 C703.96413,3.56453782 704.88429,1.82985979 706.289601,0.752594805 C707.694913,-0.324670179 709.33503,-0.174244915 711.282367,0.752594805 C712.580592,1.37048795 713.358432,2.96713829 713.615889,5.54254581 C713.014973,6.82921714 713.202242,7.73107724 714.177698,8.24812612 C716.71753,10.7708116 715.549467,13.9986175 714.968256,14.7830714 C714.163779,15.8562438 714.109774,17.1435529 714.806242,18.6449986 C716.500592,20.5995223 717.213468,22.8029005 716.94487,25.255133 C716.644448,27.9979045 713.615433,29.8445009 711,30.6064172 Z" opacity=".23"/>
        <path fill="#C7CCFB" d="M692,36.8163772 L692,46 L690,46 L690,36.9536955 C688.493538,36.7652875 686.809013,35.9643499 686.196943,33.874598 C685.48101,31.4302339 686.912875,29.621645 687.37347,28.813223 C687.834066,28.0048009 687.742764,27.6657804 686.901984,26.6367755 C686.061204,25.6077705 686.901984,23.2262391 687.362579,22.8116196 C687.823174,22.3970001 688.317408,22.5421751 688.084995,20.9209384 C687.852581,19.2997018 688.427681,18.1805547 689.306001,17.485545 C690.184321,16.7905354 691.209394,16.8875839 692.42648,17.485545 C693.23787,17.8841858 693.72402,18.9142828 693.884931,20.575836 C693.509358,21.4059465 693.626401,21.9877918 694.236061,22.3213717 C695.823456,23.9489107 695.093417,26.0313661 694.73016,26.5374654 C694.227362,27.2298347 694.193609,28.0603567 694.628901,29.0290314 C695.68787,30.2900144 696.133418,31.7115487 695.965544,33.2936342 C695.768119,35.1542112 693.685317,36.3755825 692,36.8163772 Z" opacity=".2"/>
        <path fill="url(#底部-c)" d="M866,53.5120104 C834.218323,38.7779622 730.447111,33.3395325 649.284721,58.1477059 C619.646684,66.3312362 573.584414,84.1322358 559.5,94.2031149 C545.415586,104.273994 520.70023,105.43592 493.358243,100.957662 C475.130251,97.9721567 447.854268,99.4649095 411.530294,105.43592 C394.764816,88.1166319 374.380259,79.4569876 350.376623,79.4569876 C326.372988,79.4569876 300.373462,84.2882549 272.378046,93.9507894 L230,112.935351 L302.75631,141.922867 L717.848536,197.141081 L923.90995,181.424692 C906.491102,105.97227 887.187785,63.3347092 866,53.5120104 Z" opacity=".576"/>
        <path fill="url(#底部-d)" d="M19,61.5235493 C82.0085785,47.6790563 128.341912,42.5344187 158,46.0896365 C187.658088,49.6448543 224.629834,57.0729671 268.915237,68.3739749 C279.998932,71.9123096 289.762004,73.6814769 298.204452,73.6814769 C310.868125,73.6814769 336.436249,70.3978964 385,72.4425832 C423.515831,73.9955253 455.545402,78.3373145 481.7,81.5842086 C507.854598,84.8311027 532.928642,88.00995 569.211496,88.00995 C605.494349,88.00995 708.594173,73.6814769 749.907617,73.6814769 C791.221061,73.6814769 829.68864,80.5669342 854.058582,87.6791784 C870.30521,92.4206746 882.620761,98.6575699 891.005234,106.389864 L0,119.511531 L19,61.5235493 Z" opacity=".467"/>
        <path fill="url(#底部-e)" d="M19,61.5235493 C82.0085785,47.6790563 128.341912,42.5344187 158,46.0896365 C187.658088,49.6448543 224.629834,57.0729671 268.915237,68.3739749 C279.998932,71.9123096 289.762004,73.6814769 298.204452,73.6814769 C310.868125,73.6814769 336.436249,70.3978964 385,72.4425832 C423.515831,73.9955253 455.545402,78.3373145 481.7,81.5842086 C507.854598,84.8311027 532.928642,88.00995 569.211496,88.00995 C605.494349,88.00995 708.594173,73.6814769 749.907617,73.6814769 C791.221061,73.6814769 829.68864,80.5669342 854.058582,87.6791784 C870.30521,92.4206746 882.620761,98.6575699 891.005234,106.389864 L0,119.511531 L19,61.5235493 Z"/>
      </g>
    </g>
  </g>
</svg>
