<svg xmlns="http://www.w3.org/2000/svg" viewBox="0 0 16 16">
  <path fill-rule="evenodd" d="M12.9992849,7.08560583 C12.9997614,7.0571064 13,7.02857052 13,7 C13,4.23857625 10.7614237,2 8,2 C5.23857625,2 3,4.23857625 3,7 C3,7.02857052 3.0002386,7.0571064 3.00071514,7.08560583 C3.58293773,7.29172581 4,7.84715785 4,8.5 L4,9.5 C4,10.3284271 3.32842712,11 2.5,11 C1.67157288,11 1,10.3284271 1,9.5 L1,8.5 C1,7.84666946 1.4176865,7.29089483 2.00059181,7.08514382 C2.0001977,7.05680959 2,7.02842788 2,7 C2,3.6862915 4.6862915,1 8,1 C11.3137085,1 14,3.6862915 14,7 C14,7.02842788 13.9998023,7.05680959 13.9994082,7.08514382 C14.5823135,7.29089483 15,7.84666946 15,8.5 L15,9.5 C15,12.2448746 12.9892498,14.5201133 10.3603663,14.9330994 C10.2485628,14.9763074 10.1270482,15 10,15 L8,15 C7.44771525,15 7,14.5522847 7,14 C7,13.4477153 7.44771525,13 8,13 L10,13 C10.4675951,13 10.8602321,13.320934 10.969654,13.754545 C12.2695777,13.3055875 13.2995455,12.2776646 13.7512905,10.9790433 C13.6695818,10.992825 13.5856288,11 13.5,11 C12.6715729,11 12,10.3284271 12,9.5 L12,8.5 C12,7.84715785 12.4170623,7.29172581 12.9992849,7.08560583 Z M2.5,8 C2.22385763,8 2,8.22385763 2,8.5 L2,9.5 C2,9.77614237 2.22385763,10 2.5,10 C2.77614237,10 3,9.77614237 3,9.5 L3,8.5 C3,8.22385763 2.77614237,8 2.5,8 Z M13.5,8 C13.2238576,8 13,8.22385763 13,8.5 L13,9.5 C13,9.77614237 13.2238576,10 13.5,10 C13.7761424,10 14,9.77614237 14,9.5 L14,8.5 C14,8.22385763 13.7761424,8 13.5,8 Z" opacity=".6"/>
</svg>
