<?xml version="1.0" encoding="utf-8"?>
<!-- Generator: Adobe Illustrator 22.0.1, SVG Export Plug-In . SVG Version: 6.00 Build 0)  -->
<svg version="1.1" id="图层_1" xmlns="http://www.w3.org/2000/svg" xmlns:xlink="http://www.w3.org/1999/xlink" x="0px" y="0px"
	 viewBox="0 0 16 16" style="enable-background:new 0 0 16 16;" xml:space="preserve">
<style type="text/css">
	.st0{opacity:0.8;enable-background:new    ;}
</style>
<title>5</title>
<path class="st0" d="M6,6.5v5C6,11.8,5.8,12,5.5,12l0,0C5.2,12,5,11.8,5,11.5v-5C5,6.2,5.2,6,5.5,6l0,0C5.8,6,6,6.2,6,6.5z"/>
<path class="st0" d="M10,6.5v5c0,0.3-0.2,0.5-0.5,0.5l0,0C9.2,12,9,11.8,9,11.5v-5C9,6.2,9.2,6,9.5,6l0,0C9.8,6,10,6.2,10,6.5z"/>
<path class="st0" d="M11.5,15h-8C2.7,15,2,14.3,2,13.5v-9C2,4.2,2.2,4,2.5,4S3,4.2,3,4.5v9C3,13.8,3.2,14,3.5,14h8
	c0.3,0,0.5-0.2,0.5-0.5v-9C12,4.2,12.2,4,12.5,4S13,4.2,13,4.5v9C13,14.3,12.3,15,11.5,15z"/>
<path class="st0" d="M14.5,2H10V1.5C10,0.7,9.3,0,8.5,0h-2C5.7,0,5,0.7,5,1.5V2H0.5C0.2,2,0,2.2,0,2.5C0,2.8,0.2,3,0.5,3h14
	C14.8,3,15,2.8,15,2.5S14.8,2,14.5,2z M6,1.5C6,1.2,6.2,1,6.5,1h2C8.8,1,9,1.2,9,1.5V2H6V1.5z"/>
</svg>
