<svg xmlns="http://www.w3.org/2000/svg" viewBox="0 0 16 16">
  <g fill="none" fill-rule="evenodd" opacity=".4">
    <rect width="16" height="16"/>
    <path fill="#000" d="M13.5 1C13.224 1 13 1.224 13 1.5L13 3.436C11.78 1.384 9.56 0 7 0 3.134 0 0 3.134 0 7L1 7C1 3.691 3.691 1 7 1 9.213 1 11.135 2.212 12.174 4L10.5 4C10.224 4 10 4.224 10 4.5 10 4.776 10.224 5 10.5 5L13.5 5C13.776 5 14 4.776 14 4.5L14 1.5C14 1.224 13.776 1 13.5 1M.5 13C.776 13 1 12.776 1 12.5L1 10.564C2.22 12.615 4.44 14 7 14 10.866 14 14 10.866 14 7L13 7C13 10.309 10.309 13 7 13 4.788 13 2.865 11.787 1.826 10L3.5 10C3.776 10 4 9.776 4 9.5 4 9.224 3.776 9 3.5 9L.5 9C.224 9 0 9.224 0 9.5L0 12.5C0 12.776.224 13 .5 13" transform="translate(1 1)"/>
  </g>
</svg>
