<svg xmlns="http://www.w3.org/2000/svg" viewBox="0 0 16 16">
  <g fill="none" fill-rule="evenodd" transform="translate(2 1)">
    <path stroke="#F7AA36" d="M11.4999732,9.34732719 C11.4999732,8.43218466 11.4999732,8.43218466 11.4999732,6.80945193 C11.4999732,5.93533334 11.4999732,5.93533334 11.4999732,5.17181393 C11.4999732,4.51889369 11.4999732,4.51889369 11.4999732,4.19777098 C11.4999732,3.75297028 11.4140581,3.56481551 11.0950861,3.35646881 C10.6719774,3.08010181 7.54776214,1.25515267 6.64108755,0.744801901 C6.17533424,0.482637765 5.7752045,0.493859358 5.37216046,0.737146008 C5.16233216,0.863803199 5.19702072,0.843543006 3.21762685,1.99764001 C3.21362304,1.99997446 3.21362304,1.99997446 3.20961925,2.00230891 C1.97921856,2.71970937 1.33250139,3.09919101 1.09748537,3.24388632 C0.67448033,3.50432324 0.519915708,3.76486437 0.511540718,4.20723531 C0.506542591,4.47123881 0.505500179,5.35382359 0.507307641,6.72622302 C0.507737259,7.05243039 0.508105208,7.2729443 0.509057979,7.79133462 C0.510986377,8.75352161 0.5116303,9.09080718 0.5116303,9.2486644 C0.5116303,9.97305138 0.592940249,10.1645957 1.20269129,10.5265645 C2.66666725,11.39563 4.8420993,12.6756829 5.35431302,12.9638616 C5.8149904,13.2230453 6.24241323,13.220557 6.62172479,12.9782596 C6.9846488,12.7464302 8.4235393,11.9017766 10.9692929,10.4258969 C11.3259983,10.2271145 11.4999732,9.90958826 11.4999732,9.34732719 Z"/>
    <path fill="#F7AA36" d="M6.48289265,8.01485108 L6.48289265,6.00020569 L8.98289265,6.00020569 C9.25789265,6.00020569 9.48289265,5.77811986 9.48289265,5.50668164 C9.48289265,5.23524341 9.25789265,5.01315759 8.98289265,5.01315759 L8.00789265,5.01315759 L8.79089265,3.71724368 C8.92789265,3.48035213 8.84589265,3.17930246 8.60689265,3.04210278 C8.36789265,2.90589014 8.06189265,2.98682808 7.92389265,3.22371963 L6.85289265,5.01315759 L5.11189265,5.01315759 L4.04189265,3.22371963 C3.90389265,2.98682808 3.59789265,2.90589014 3.35889265,3.04210278 C3.11989265,3.17930246 3.03789265,3.48035213 3.17589265,3.71724368 L3.95789265,5.01315759 L2.98289265,5.01315759 C2.70789265,5.01315759 2.48289265,5.23524341 2.48289265,5.50668164 C2.48289265,5.77811986 2.70789265,6.00020569 2.98289265,6.00020569 L5.48289265,6.00020569 L5.48289265,8.01485108 L2.98289265,8.01485108 C2.70789265,8.01485108 2.48289265,8.23693688 2.48289265,8.50837518 C2.48289265,8.77981338 2.70789265,9.00189918 2.98289265,9.00189918 L5.48289265,9.00189918 L5.48289265,10.4824714 C5.48289265,10.7539096 5.70789265,10.9759954 5.98289265,10.9759954 C6.25789265,10.9759954 6.48289265,10.7539096 6.48289265,10.4824714 L6.48289265,9.00189918 L8.98289265,9.00189918 C9.25789265,9.00189918 9.48289265,8.77981338 9.48289265,8.50837518 C9.48289265,8.23693688 9.25789265,8.01485108 8.98289265,8.01485108 L6.48289265,8.01485108 Z"/>
  </g>
</svg>
