<svg xmlns="http://www.w3.org/2000/svg" viewBox="0 0 48 16">
  <g fill="none" fill-rule="evenodd">
    <rect width="48" height="16" fill="#FA4732" rx="2"/>
    <path fill="#FFF" d="M4.74,4.14 L7.99,4.14 L7.99,4.89 C7.69,5.75 7.34,6.65 6.94,7.6 C7.57,8.52 7.91,9.32 7.95,10.01 C7.95,10.47 7.85,10.81 7.65,11.01 C7.35,11.26 6.84,11.39 6.1,11.4 L5.79,10.44 C5.99,10.47 6.16,10.49 6.3,10.49 C6.58,10.47 6.76,10.43 6.86,10.37 C6.95,10.3 7,10.18 7,10.01 C7,9.33 6.66,8.58 5.98,7.74 C6.43,6.74 6.78,5.83 7.04,5.03 L5.67,5.03 L5.67,13.04 L4.74,13.04 L4.74,4.14 Z M9.26,6.82 L9.26,7.73 L11.91,7.73 L11.91,6.82 L9.26,6.82 Z M11.91,5.96 L11.91,5.03 L9.26,5.03 L9.26,5.96 L11.91,5.96 Z M10.2,8.6 L9.26,8.6 L9.26,11.71 C9.8,11.55 10.33,11.35 10.85,11.11 L11.07,11.99 C10.34,12.29 9.42,12.59 8.31,12.88 L8.08,12.05 C8.24,11.99 8.33,11.9 8.33,11.77 L8.33,4.13 L12.84,4.13 L12.84,8.6 L11.05,8.6 C11.15,9.11 11.33,9.58 11.57,10.02 C12.01,9.76 12.43,9.39 12.83,8.91 L13.44,9.52 C13.02,10.02 12.54,10.41 12.01,10.69 C12.43,11.24 12.99,11.72 13.68,12.12 L13.15,12.96 C11.51,11.89 10.52,10.44 10.2,8.6 Z M17.77,4.49 L17.77,11.98 L16.85,11.98 L16.85,11.36 L15.65,11.36 L15.65,12.22 L14.72,12.22 L14.72,4.49 L17.77,4.49 Z M15.65,10.48 L16.85,10.48 L16.85,8.31 L15.65,8.31 L15.65,10.48 Z M15.65,7.42 L16.85,7.42 L16.85,5.35 L15.65,5.35 L15.65,7.42 Z M19.27,7.51 C19.88,8.44 20.35,9.25 20.67,9.95 L19.88,10.5 C19.53,9.76 19.06,8.92 18.48,8 L19.27,7.51 Z M21.45,12.93 L19.68,12.93 L19.47,12.01 C20.05,12.04 20.6,12.06 21.13,12.06 C21.37,12.06 21.49,11.93 21.49,11.67 L21.49,6.47 L18.16,6.47 L18.16,5.56 L21.49,5.56 L21.49,3.88 L22.46,3.88 L22.46,5.56 L23.58,5.56 L23.58,6.47 L22.46,6.47 L22.46,11.91 C22.46,12.59 22.12,12.93 21.45,12.93 Z M25.64,7 C25.46,7.13 25.27,7.26 25.08,7.38 L24.48,6.65 C25.66,5.95 26.66,4.99 27.5,3.75 L28.46,3.96 C28.32,4.18 28.17,4.39 28.02,4.6 L31.36,4.6 L31.36,5.32 C31,5.77 30.65,6.16 30.3,6.48 L32.59,6.48 L32.59,9.69 L30.33,9.69 L30.33,11.51 C30.33,11.81 30.45,11.96 30.7,11.96 L32.22,11.96 C32.36,11.96 32.46,11.89 32.52,11.77 C32.6,11.63 32.65,11.22 32.67,10.53 L33.57,10.82 C33.49,11.82 33.37,12.41 33.19,12.61 C33.02,12.79 32.76,12.88 32.4,12.88 L30.41,12.88 C29.72,12.88 29.38,12.49 29.38,11.71 L29.38,9.69 L29.03,9.69 C28.97,9.87 28.9,10.04 28.82,10.2 C28.3,11.34 27.07,12.3 25.11,13.06 L24.51,12.32 C26.23,11.68 27.35,10.89 27.89,9.96 C27.93,9.86 27.98,9.77 28.02,9.69 L25.64,9.69 L25.64,7 Z M29.11,6.48 C29.45,6.18 29.79,5.84 30.13,5.46 L27.33,5.46 C26.99,5.83 26.65,6.17 26.29,6.48 L29.11,6.48 Z M31.68,8.8 L31.68,7.36 L29.46,7.36 C29.44,7.88 29.38,8.36 29.29,8.8 L31.68,8.8 Z M28.31,8.8 C28.41,8.36 28.48,7.88 28.51,7.36 L26.56,7.36 L26.56,8.8 L28.31,8.8 Z M36.27,6.21 L36.13,6.7 L37.32,6.7 C37.36,6.54 37.39,6.38 37.41,6.21 L36.27,6.21 Z M38.33,6.21 C38.32,6.38 38.3,6.54 38.27,6.7 L39.63,6.7 L39.63,6.21 L38.33,6.21 Z M40.55,6.21 L40.55,6.7 L43.19,6.7 C43.19,7.48 43.11,7.97 42.95,8.18 C42.79,8.4 42.42,8.51 41.84,8.52 C41.68,8.52 41.52,8.51 41.37,8.5 L41.2,7.85 C41.38,7.87 41.56,7.88 41.73,7.88 C41.99,7.88 42.15,7.84 42.21,7.77 C42.26,7.69 42.29,7.58 42.29,7.42 L40.55,7.42 L40.55,8.46 L39.63,8.46 L39.63,7.42 L38.02,7.42 C37.89,7.66 37.74,7.88 37.56,8.06 C37.33,8.28 37.03,8.47 36.66,8.65 L42.37,8.65 L42.37,11.43 L41.43,11.43 L41.43,9.49 L36.83,9.49 L36.83,11.43 L35.9,11.43 L35.9,8.93 C35.7,8.99 35.49,9.05 35.27,9.1 L34.79,8.36 C35.8,8.14 36.48,7.86 36.84,7.52 C36.88,7.48 36.91,7.44 36.93,7.42 L35.11,7.42 L35.5,5.48 L37.42,5.48 L37.42,4.99 L35.2,4.99 L35.2,4.22 L37.42,4.22 L37.42,3.78 L38.34,3.78 L38.34,4.22 L39.63,4.22 L39.63,3.78 L40.55,3.78 L40.55,4.22 L42.67,4.22 L42.67,6.21 L40.55,6.21 Z M38.34,4.99 L38.34,5.48 L39.63,5.48 L39.63,4.99 L38.34,4.99 Z M40.55,4.99 L40.55,5.48 L41.79,5.48 L41.79,4.99 L40.55,4.99 Z M39.74,11.23 C41.03,11.53 42.21,11.89 43.27,12.32 L42.75,13.11 C41.62,12.61 40.46,12.23 39.26,11.95 L39.74,11.23 Z M38.63,9.74 L39.57,9.83 C39.44,10.98 39.14,11.74 38.67,12.12 C38.17,12.6 36.99,12.92 35.13,13.06 L34.75,12.21 C36.32,12.14 37.36,11.93 37.86,11.57 C38.3,11.21 38.55,10.6 38.63,9.74 Z"/>
    <rect width="8" height="8" transform="translate(15 4)"/>
  </g>
</svg>
