<svg xmlns="http://www.w3.org/2000/svg" viewBox="0 0 34 34">
  <g>
    <path d="M34,0 L34,30 C34,32.209139 32.209139,34 30,34 L0,34 L34,0 Z" transform="matrix(1 0 0 -1 0 34)"/>
    <path fill="#FFF" fill-rule="nonzero" d="M21.1183801,15.4859813 C20.9252336,15.4859813 20.7383178,15.411215 20.588785,15.2679128 L16.8629283,11.5482866 C16.5700935,11.2554517 16.5700935,10.7819315 16.8629283,10.4890966 C17.1557632,10.1962617 17.6292835,10.1962617 17.9221184,10.4890966 L21.1183801,13.6853583 L28.0778816,6.73208723 C28.3707165,6.43925234 28.8442368,6.43925234 29.1370717,6.73208723 C29.4299065,7.02492212 29.4299065,7.49844237 29.1370717,7.79127726 L21.6479751,15.2679128 C21.5046729,15.411215 21.3115265,15.4859813 21.1183801,15.4859813 Z"/>
  </g>
</svg>
