<?xml version="1.0" encoding="UTF-8"?>
<svg viewBox="0 0 12 12" version="1.1" xmlns="http://www.w3.org/2000/svg" xmlns:xlink="http://www.w3.org/1999/xlink">
    <!-- Generator: Sketch 52.3 (67297) - http://www.bohemiancoding.com/sketch -->
    <title>icon-recommend-active</title>
    <desc>Created with Sketch.</desc>
    <g id="Page-1" stroke-width="1" fill-rule="evenodd">
        <g id="A-001-在线字体-C稿" transform="translate(-1343.000000, -248.000000)" fill-rule="nonzero">
            <g id="字体标签类型" transform="translate(1156.000000, 33.000000)">
                <g id="li-2" transform="translate(0.000000, 198.000000)">
                    <g id="pic" transform="translate(8.000000, 8.000000)">
                        <g id="icon-collection" transform="translate(176.000000, 6.000000)">
                            <g id="icon-recommend-active" transform="translate(3.000000, 3.000000)">
                                <path d="M11.9022108,4.93003848 C11.7130802,5.17140322 9.3268317,7.74365954 9.3268317,7.74365954 C9.3268317,7.74365954 9.86825258,11.4195012 9.92221504,11.6340059 C9.9761775,11.8485107 9.74752934,12.0801968 9.55839877,11.9729069 C9.3692682,11.865617 5.97225265,10.2830537 5.97225265,10.2830537 C5.97225265,10.2830537 2.85485395,11.7668803 2.58459258,11.9010302 C2.31433121,12.0351801 2.02341292,11.9506236 2.07745022,11.601969 C2.13148753,11.2533144 2.61767359,7.74365954 2.61767359,7.74365954 C2.61767359,7.74365954 0.354992393,5.20051404 0.138850655,4.98593426 C0.0274305337,4.90072146 -0.0231261524,4.75748683 0.0100382991,4.62098965 C0.0432027506,4.48449247 0.153801894,4.3806063 0.291831614,4.35630017 C0.616055448,4.30265523 3.89900888,3.63423172 3.89900888,3.63423172 C3.89900888,3.63423172 5.55357579,0.525751032 5.71568771,0.203956394 C5.87779963,-0.117838245 6.15659321,-0.0183512569 6.29168647,0.223013479 C6.42677974,0.464378215 8.04535421,3.63423172 8.04535421,3.63423172 C8.04535421,3.63423172 11.4889227,4.31863617 11.7320906,4.37220609 C11.8522205,4.39474945 11.9499157,4.48231945 11.9856469,4.59948363 C12.021378,4.71664782 11.9892301,4.84401054 11.9022108,4.93003848 Z" id="Shape"></path>
                            </g>
                        </g>
                    </g>
                </g>
            </g>
        </g>
    </g>
</svg>