<svg xmlns="http://www.w3.org/2000/svg" viewBox="0 0 16 16">
  <g fill-rule="evenodd" opacity=".6">
    <path d="M16,8.8 C16,9.07614237 15.7761424,9.3 15.5,9.3 C15.2238576,9.3 15,9.07614237 15,8.8 C14.9926732,7.53365156 14.2258975,6.44250673 13.1207752,5.93678084 C13.1290927,5.8377128 13.1333333,5.73752058 13.1333333,5.63636364 C13.1333333,3.62805546 11.4618631,2 9.4,2 C7.94939544,2 6.69202341,2.80583779 6.07399503,3.98298956 C5.80405855,3.87670326 5.50904573,3.81818182 5.2,3.81818182 C3.91133558,3.81818182 2.86666667,4.83571648 2.86666667,6.09090909 C2.86666667,6.29287838 2.89371426,6.48869446 2.9444738,6.67510831 C1.81650962,7.02727082 1,8.05712273 1,9.27272727 C1,10.7789584 2.2536027,12 3.8,12 L6.5,12 C6.77614237,12 7,12.2238576 7,12.5 C7,12.7761424 6.77614237,13 6.5,13 L3.8,13 C1.70712209,13 7.46069873e-14,11.3372187 7.46069873e-14,9.27272727 C7.46069873e-14,7.92384293 0.735832411,6.71867692 1.86678574,6.06291719 C1.88210826,4.26246305 3.37430677,2.81818182 5.2,2.81818182 C5.34146759,2.81818182 5.48189038,2.82689015 5.62060948,2.84408701 C6.50089391,1.70121951 7.88825309,1 9.4,1 C11.912047,1 13.9757708,2.91978794 14.1247269,5.35421096 C15.2712321,6.11487201 15.9937923,7.39146944 15.9999602,8.8 Z"/>
    <path d="M11.4975372,8.00003711 C11.6223216,7.99851238 11.7500166,8.04391224 11.8535534,8.14744899 L14.8674034,11.1436623 C15.0626656,11.3389244 15.0626656,11.6555069 14.8674034,11.850769 C14.6721413,12.0460312 14.3555588,12.0460312 14.1602966,11.850769 L12,9.70810916 L12,14.5 C12,14.7761424 11.7761424,15 11.5,15 C11.4983599,14.9999921 11.4967181,15 11.4950745,15 C11.2189321,15 10.9950745,14.7761424 10.9950745,14.5 L10.9950745,9.70810916 L8.83477783,11.850769 C8.63951569,12.0460312 8.3229332,12.0460312 8.12767105,11.850769 C7.9324089,11.6555069 7.9324089,11.3389244 8.12767105,11.1436623 L11.1415211,8.14744899 C11.2450578,8.04391224 11.3727528,7.99851238 11.4975372,8.00003711 Z" transform="matrix(1 0 0 -1 0 23)"/>
  </g>
</svg>
