<?xml version="1.0" encoding="UTF-8"?>
<svg viewBox="0 0 19 19" version="1.1" xmlns="http://www.w3.org/2000/svg" xmlns:xlink="http://www.w3.org/1999/xlink">
    <!-- Generator: Sketch 52.3 (67297) - http://www.bohemiancoding.com/sketch -->
    <title>vip icon/money</title>
    <desc>Created with Sketch.</desc>
    <g id="vip-icon/money" stroke="none" stroke-width="1" fill="none" fill-rule="evenodd">
        <g id="member_docer" transform="translate(1.000000, 0.000000)">
            <path d="M16.9981238,6.17200667 L16.9981238,12.9740772 L16.9897453,12.9740772 C16.996181,13.0417749 16.9999452,13.1103039 16.9999452,13.1796643 C17.0055665,13.9560251 16.5780009,14.6736305 15.8846249,15.051564 L9.80190947,18.5668539 L9.76208094,18.5668539 C9.02429816,19.144382 7.97573049,19.144382 7.23794771,18.5668539 L7.19981917,18.5668539 L1.34223208,15.1816147 L1.34223208,15.1519228 C0.523976303,14.824234 -0.00765687373,14.0420697 8.34011756e-05,13.177289 C8.34011756e-05,13.1531791 0.00275482712,13.1299006 0.00360482628,13.1062658 L0.00360482628,5.89230846 C0.00275482712,5.86867366 8.34011756e-05,5.8452764 8.34011756e-05,5.8212853 C8.34011756e-05,5.7972942 0.00275482712,5.77413447 0.00360482628,5.75038091 L0.00360482628,5.56747847 L0.0164762422,5.56747847 C0.0968904148,4.85082443 0.545706845,4.2238795 1.20671793,3.90484776 L1.18340367,3.90484776 L7.19896918,0.428276136 L7.24450484,0.428276136 C7.97974905,-0.142758712 9.02040103,-0.142758712 9.75564523,0.428276136 L9.80263804,0.428276136 L15.9024749,3.9534238 L15.9193535,3.96316276 L16.1053818,4.0707664 L16.1053818,4.08145551 C16.670891,4.48595639 17.0036135,5.13129898 16.9999452,5.81653459 C16.9992427,5.93566932 16.9886435,6.05455122 16.9682524,6.17200667 L16.9981238,6.17200667 Z" id="Shape" fill="#FFB753"></path>
            <path d="M11.5,11.0388557 L9,11.0388557 L9,9.06475952 L11.5,9.06475952 C11.775,9.06475952 12,8.84267369 12,8.57123547 C12,8.29979724 11.775,8.07771142 11.5,8.07771142 L10.525,8.07771142 L11.308,6.7412483 C11.445,6.50435675 11.363,6.20330708 11.124,6.0661074 C10.885,5.92989476 10.579,6.0108327 10.441,6.24772425 L9.37,8.07771142 L7.629,8.07771142 L6.559,6.24772425 C6.421,6.0108327 6.115,5.92989476 5.876,6.0661074 C5.637,6.20330708 5.555,6.50435675 5.693,6.7412483 L6.475,8.07771142 L5.5,8.07771142 C5.225,8.07771142 5,8.29979724 5,8.57123547 C5,8.84267369 5.225,9.06475952 5.5,9.06475952 L8,9.06475952 L8,11.0388557 L5.5,11.0388557 C5.225,11.0388557 5,11.2609415 5,11.5323798 C5,11.803818 5.225,12.0259038 5.5,12.0259038 L8,12.0259038 L8,13.506476 C8,13.7779142 8.225,14 8.5,14 C8.775,14 9,13.7779142 9,13.506476 L9,12.0259038 L11.5,12.0259038 C11.775,12.0259038 12,11.803818 12,11.5323798 C12,11.2609415 11.775,11.0388557 11.5,11.0388557" id="Fill-1" fill="#FFFFFF"></path>
        </g>
    </g>
</svg>