<?xml version="1.0" encoding="utf-8"?>
<!-- Generator: Adobe Illustrator 22.0.1, SVG Export Plug-In . SVG Version: 6.00 Build 0)  -->
<svg version="1.1" id="图层_1" xmlns="http://www.w3.org/2000/svg" xmlns:xlink="http://www.w3.org/1999/xlink" x="0px" y="0px"
	 viewBox="0 0 35 16" style="enable-background:new 0 0 35 16;" xml:space="preserve">
<style type="text/css">
	.st0{fill:#FFB753;}
	.st1{fill:#FFFFFF;}
	.st2{enable-background:new    ;}
</style>
<title>msg/vip/money</title>
<desc>Created with Sketch.</desc>
<g id="msg_x2F_vip_x2F_money">
	<g>
		<g id="Rectangle-16">
			<path class="st0" d="M2,0h31c1.1,0,2,0.9,2,2v12c0,1.1-0.9,2-2,2H2c-1.1,0-2-0.9-2-2V2C0,0.9,0.9,0,2,0z"/>
		</g>
		<g id="Fill-1">
			<path class="st1" d="M9.5,9H7v-2h2.5c0.3,0,0.5-0.2,0.5-0.5c0-0.3-0.2-0.5-0.5-0.5h-1l0.8-1.3c0.1-0.2,0.1-0.5-0.2-0.7
				C8.9,3.9,8.6,4,8.4,4.2L7.4,6.1H5.6L4.6,4.2C4.4,4,4.1,3.9,3.9,4.1C3.6,4.2,3.6,4.5,3.7,4.7l0.8,1.3h-1C3.2,6.1,3,6.3,3,6.6
				c0,0.3,0.2,0.5,0.5,0.5H6v2H3.5C3.2,9,3,9.3,3,9.5C3,9.8,3.2,10,3.5,10H6v1.5C6,11.8,6.2,12,6.5,12S7,11.8,7,11.5V10h2.5
				C9.8,10,10,9.8,10,9.5C10,9.3,9.8,9,9.5,9"/>
		</g>
		<g class="st2">
			<path class="st1" d="M16.5,6h-2.8v1.3h-0.9v-2h3.7V4.8h-3.2V4.1h7.4v0.8h-3.2v0.4h3.7v2h-0.9V6h-2.8v1.7c0.1,0.1,0.2,0.2,0.4,0.2
				V7.4h2.1V8h-2c0.9,0.6,2.2,1,3.7,1.4l-0.5,0.8C19.4,9.7,18,9,17,8.2c-1.1,0.8-2.5,1.5-4.1,2l-0.5-0.8C13.8,9,15,8.5,16,8h-2V7.4
				h2.1v0.5c0.1-0.1,0.2-0.2,0.4-0.2V6z M16.2,6.4V7h-2.1V6.4H16.2z M17.8,9.6l-0.2,0.3h2.1v0.7c-0.6,0.5-1.1,1-1.8,1.4
				c0.4,0.2,0.8,0.3,1.2,0.5l-0.5,0.8c-1.3-0.6-2.6-1.1-3.9-1.5l0.5-0.7c0.6,0.2,1.2,0.3,1.8,0.5c0.5-0.3,1-0.6,1.4-0.9h-4.3V9.8
				h2.8c-0.3-0.2-0.6-0.4-0.8-0.6l0.5-0.5C17,9,17.4,9.2,17.8,9.6z M19.9,6.4V7h-2V6.4H19.9z"/>
			<path class="st1" d="M22.7,7.7l-0.3-0.9c1-0.9,1.7-1.9,2.1-3l0.9,0.2c-0.1,0.3-0.2,0.5-0.3,0.8h2.2c-0.1-0.3-0.3-0.6-0.5-0.8
				l1-0.2c0.1,0.3,0.3,0.6,0.4,1H31v0.8h-2.9v0.6h2.5v0.7h-2.5v0.5h2.5v0.7h-2.5v0.6h3.1v0.8h-7.5V6.7C23.4,7.1,23.1,7.4,22.7,7.7z
				 M30.6,13.1h-0.9v-0.4h-5.1v0.4h-0.9v-3h6.9V13.1z M27.2,5.5h-2.5c0,0,0,0,0,0v0.5h2.5V5.5z M27.2,6.8h-2.5v0.5h2.5V6.8z
				 M27.2,8.1h-2.5v0.6h2.5V8.1z M29.7,11.8v-1h-5.1v1H29.7z"/>
		</g>
	</g>
</g>
</svg>
