<svg xmlns="http://www.w3.org/2000/svg" viewBox="0 0 35 16">
  <g fill="none" fill-rule="evenodd">
    <rect width="35" height="16" fill="#5396FF" rx="2"/>
    <path stroke="#FFF" d="M3.5,5.32493654 L3.5,8.5 C3.5,10.709139 5.290861,12.5 7.5,12.5 C9.709139,12.5 11.5,10.709139 11.5,8.5 L11.5,5.32493654 L7.5,3.54715877 L3.5,5.32493654 Z"/>
    <path stroke="#FFF" stroke-linecap="round" d="M6,6.5 C6,7.32842712 6.67157288,8 7.5,8 C8.32842712,8 9,7.32842712 9,6.5"/>
    <path fill="#FFF" d="M16.04,9 C15.85,9.13 15.66,9.26 15.46,9.38 L14.87,8.62 L14.87,12.66 L13.96,12.66 L13.96,6.17 L16.04,6.17 C15.9,5.81 15.75,5.46 15.57,5.14 L13.54,5.14 L13.54,4.23 L17.47,4.23 C17.38,3.99 17.28,3.76 17.18,3.56 L18.23,3.4 C18.33,3.65 18.42,3.93 18.52,4.23 L22.46,4.23 L22.46,5.14 L20.36,5.14 C20.2,5.52 20.04,5.86 19.87,6.17 L22.02,6.17 L22.02,11.53 C22.02,12.29 21.69,12.68 21.04,12.68 L20.02,12.68 L19.78,11.82 L20.74,11.85 C20.98,11.85 21.11,11.67 21.11,11.33 L21.11,7.01 L14.87,7.01 L14.87,8.58 C15.67,8.14 16.33,7.62 16.87,7.03 L17.54,7.62 C17.13,8.1 16.66,8.54 16.13,8.93 L19.95,8.93 L19.95,11.57 L16.04,11.57 L16.04,9 Z M19.03,10.73 L19.03,9.78 L16.96,9.78 L16.96,10.73 L19.03,10.73 Z M19.06,7.02 C19.86,7.57 20.54,8.12 21.09,8.66 L20.38,9.36 C19.92,8.82 19.26,8.25 18.42,7.63 L19.06,7.02 Z M17.01,6.17 L18.83,6.17 C19.01,5.83 19.17,5.49 19.32,5.14 L16.61,5.14 C16.75,5.45 16.89,5.79 17.01,6.17 Z M25.26,7.13 L25.26,8.66 L27.56,8.66 L27.56,7.13 L25.26,7.13 Z M25.21,9.54 C25.09,10.8 24.72,11.84 24.1,12.66 L23.37,12.01 C23.97,11.15 24.28,10.06 24.3,8.74 L24.3,3.84 L31.97,3.84 L31.97,11.37 C31.97,12.12 31.58,12.5 30.82,12.5 L29.67,12.5 L29.42,11.57 C29.81,11.6 30.17,11.62 30.51,11.62 C30.83,11.62 31,11.42 31,11.03 L31,9.54 L28.52,9.54 L28.52,12.39 L27.56,12.39 L27.56,9.54 L25.21,9.54 Z M31,8.66 L31,7.13 L28.52,7.13 L28.52,8.66 L31,8.66 Z M31,6.26 L31,4.76 L28.52,4.76 L28.52,6.26 L31,6.26 Z M27.56,4.76 L25.26,4.76 L25.26,6.26 L27.56,6.26 L27.56,4.76 Z"/>
  </g>
</svg>
