<svg xmlns="http://www.w3.org/2000/svg" viewBox="0 0 24 24">
  <g fill="none" fill-rule="evenodd">
    <rect width="16" height="16" x="9" y="3"/>
    <path fill="#979797" fill-rule="nonzero" d="M20.7219106 14L13.2780894 14 11.466284 18.6804971 10.533716 18.3195029 15.6011479 5.2286372C15.9002052 4.45607249 16.7689264 4.0722189 17.5414912 4.37127621 17.9351956 4.52367793 18.2464504 4.83493276 18.3988521 5.2286372L23.466284 18.3195029 22.533716 18.6804971 20.7219106 14zM20.3348139 13L17.466284 5.58963131C17.4154835 5.45839649 17.3117319 5.35464488 17.1804971 5.30384431 16.9229755 5.20415854 16.6334017 5.33210974 16.533716 5.58963131L13.6651861 13 20.3348139 13zM8.20858679 15L2.79141321 15 1.47044371 18.6693597.529556294 18.3306403 4.08866888 8.44421641C4.36927328 7.66475976 5.22862255 7.2603601 6.0080792 7.54096449 6.42872508 7.69239701 6.7598986 8.02357053 6.91133112 8.44421641L10.4704437 18.3306403 9.52955629 18.6693597 8.20858679 15zM7.84858679 14L5.97044371 8.78293588C5.9199662 8.64272058 5.80957503 8.53232941 5.66935973 8.48185191 5.40954085 8.38831711 5.12309109 8.52311699 5.02955629 8.78293588L3.15141321 14 7.84858679 14z"/>
  </g>
</svg>
