<?xml version="1.0" encoding="UTF-8"?>
<svg viewBox="0 0 16 16" version="1.1" xmlns="http://www.w3.org/2000/svg" xmlns:xlink="http://www.w3.org/1999/xlink">
    <!-- Generator: Sketch 52.3 (67297) - http://www.bohemiancoding.com/sketch -->
    <title>刷新</title>
    <desc>Created with Sketch.</desc>
    <g id="刷新" stroke="none" stroke-width="1" fill="none" fill-rule="evenodd">
        <rect id="Rectangle-path" fill="#000000" fill-rule="nonzero" opacity="0" x="0" y="0" width="16" height="16"></rect>
        <path d="M14.5123329,1.62810748 C14.5029579,1.25310748 14.2185829,1.01716998 13.8092079,1.02654498 C13.4013954,1.03435748 13.1904579,1.28435748 13.1232704,1.65935748 C13.0888954,1.85310748 13.0998329,2.05623248 13.0982704,2.25623248 C13.0951454,2.59685748 13.0967079,2.93591998 13.0967079,3.27654498 C13.0435829,3.29998248 12.9904579,3.32498248 12.9373329,3.34841998 C12.7592079,3.17654498 12.5842079,3.00154498 12.4013954,2.83435748 C10.7638954,1.32185748 8.8185829,0.757794976 6.6420204,1.09373248 C3.5670204,1.56560748 1.2888954,4.12966998 1.0217079,7.33123248 C0.7717079,10.3343575 2.7045204,13.2343575 5.6076454,14.21092 C8.5435829,15.19842 11.8107704,14.0499825 13.4623329,11.445295 C13.5685829,11.2781075 13.6795204,11.10467 13.7435829,10.920295 C13.8701454,10.56092 13.8060829,10.2249825 13.4513954,10.032795 C13.1092079,9.84685748 12.7857704,9.92185748 12.5420204,10.23592 C12.4201454,10.3937325 12.3279579,10.57342 12.2154579,10.73592 C11.1920204,12.21717 9.7857704,13.0249825 7.9857704,13.1124825 C5.5763954,13.22967 3.3670204,11.664045 2.6638954,9.35623248 C1.9388954,6.97185748 2.9420204,4.40466998 5.0873329,3.15154498 C7.1732704,1.93435748 9.8513954,2.28279498 11.5404579,3.99998248 C11.6638954,4.12498248 11.7467079,4.29060748 11.9482704,4.57966998 C11.2888954,4.57966998 10.7810829,4.55310748 10.2779579,4.58748248 C9.8138954,4.62029498 9.5670204,4.89685748 9.5717079,5.28591998 C9.5748329,5.66404498 9.8388954,5.97810748 10.2857704,5.98904498 C11.4529579,6.01716998 12.6217079,6.00779498 13.7888954,5.99529498 C14.1732704,5.99060748 14.4920204,5.77029498 14.5045204,5.39060748 C14.5404579,4.13591998 14.5435829,2.88123248 14.5123329,1.62810748 Z" id="Shape" fill="#5789D9" fill-rule="nonzero"></path>
    </g>
</svg>