<?xml version="1.0" encoding="UTF-8"?>
<svg viewBox="0 0 10 10" version="1.1" xmlns="http://www.w3.org/2000/svg" xmlns:xlink="http://www.w3.org/1999/xlink">
    <!-- Generator: Sketch 52.3 (67297) - http://www.bohemiancoding.com/sketch -->
    <title>Path</title>
    <desc>Created with Sketch.</desc>
    <g id="Page-1" stroke="none" stroke-width="1" fill-rule="evenodd" opacity="0.800000012">
        <g id="设计备注" transform="translate(-128.000000, -316.000000)">
            <g id="样式状态（顺序：默认/悬停/点击/禁用）" transform="translate(32.000000, 156.000000)">
                <g id="30" transform="translate(95.000000, 159.000000)">
                    <path d="M6.706,5.9988 L10.8745,10.1673 C11.0683034,10.3628084 11.0676127,10.6781973 10.872955,10.872855 C10.6782973,11.0675127 10.3629084,11.0682034 10.1674,10.8744 L5.9989,6.7059 L1.8611,10.8437 C1.73533245,10.9701551 1.55157117,11.0197519 1.3792574,10.9737483 C1.20694362,10.9277447 1.07235527,10.7931564 1.02635171,10.6208426 C0.980348138,10.4485288 1.02994491,10.2647676 1.1564,10.139 L5.2942,6.0012 L1.1257,1.8327 C0.931896635,1.63719163 0.93258726,1.32180273 1.127245,1.127145 C1.32190273,0.93248726 1.63729163,0.931796635 1.8328,1.1256 L6.0013,5.2941 L10.1702,1.1252 C10.2959676,0.998744914 10.4797288,0.949148138 10.6520426,0.995151705 C10.8243564,1.04115527 10.9589447,1.17574362 11.0049483,1.3480574 C11.0509519,1.52037117 11.0013551,1.70413245 10.8749,1.8299 L6.706,5.9988 Z" id="Path"></path>
                </g>
            </g>
        </g>
    </g>
</svg>