<?xml version="1.0" encoding="UTF-8"?>
<svg viewBox="0 0 18 18" version="1.1" xmlns="http://www.w3.org/2000/svg" xmlns:xlink="http://www.w3.org/1999/xlink">
    <!-- Generator: Sketch 52.3 (67297) - http://www.bohemiancoding.com/sketch -->
    <title>icon-download</title>
    <desc>Created with Sketch.</desc>
    <defs>
        <polygon id="path-1" points="0 0.5004 16.9996 0.5004 16.9996 12.7314 0 12.7314"></polygon>
    </defs>
    <g id="Page-1" stroke="none" stroke-width="1" fill="none" fill-rule="evenodd">
        <g id="C-001-云字体入口" transform="translate(-623.000000, -156.000000)">
            <g id="icon-download" transform="translate(623.000000, 156.000000)">
                <g id="Group-12" transform="translate(0.000000, 2.000000)">
                    <g id="Group-8">
                        <mask id="mask-2" fill="white">
                            <use xlink:href="#path-1"></use>
                        </mask>
                        <g id="Clip-7"></g>
                        <path d="M3.0186,12.7314 C2.9586,12.7314 2.8996,12.7204 2.8406,12.6984 C1.1156,12.0414 -0.0004,10.4604 -0.0004,8.6734 C-0.0004,7.2244 0.7656,5.8694 2.0166,5.0704 C2.1686,2.5044 4.3426,0.5004 6.9936,0.5004 C8.1996,0.5004 9.3446,0.9204 10.2546,1.6904 C10.6536,1.5404 11.0816,1.4614 11.5116,1.4614 C13.4306,1.4614 14.9926,2.9714 14.9926,4.8264 C14.9926,4.9044 14.9896,4.9814 14.9826,5.0604 C16.2356,5.8554 16.9996,7.2104 16.9996,8.6734 C16.9996,10.4134 15.9356,11.9854 14.2886,12.6794 C14.0336,12.7864 13.7416,12.6674 13.6326,12.4134 C13.5256,12.1584 13.6456,11.8654 13.8996,11.7574 C15.1756,11.2204 15.9996,10.0094 15.9996,8.6734 C15.9996,7.4644 15.3126,6.3504 14.2066,5.7644 C14.0096,5.6604 13.9056,5.4384 13.9516,5.2204 C13.9786,5.0874 13.9926,4.9594 13.9926,4.8264 C13.9926,3.5234 12.8796,2.4614 11.5116,2.4614 C11.1186,2.4614 10.7276,2.5524 10.3806,2.7254 C10.1886,2.8184 9.9626,2.7834 9.8106,2.6364 C9.0526,1.9034 8.0516,1.5004 6.9936,1.5004 C4.7956,1.5004 3.0076,3.2084 3.0076,5.3074 C3.0076,5.4894 2.9096,5.7104 2.7486,5.7984 C1.6696,6.3934 0.9996,7.4944 0.9996,8.6734 C0.9996,10.0434 1.8626,11.2554 3.1966,11.7644 C3.4556,11.8624 3.5836,12.1514 3.4856,12.4094 C3.4106,12.6094 3.2196,12.7314 3.0186,12.7314" id="Fill-6" fill="#000000" opacity="0.699999988" mask="url(#mask-2)"></path>
                    </g>
                    <g id="Group-11" transform="translate(4.000000, 7.000000)" fill="#5A90F7">
                        <path d="M8.3535,4.6465 C8.1585,4.4515 7.8415,4.4515 7.6465,4.6465 L4.9995,7.2925 L4.9995,0.5005 C4.9995,0.2235 4.7765,0.0005 4.4995,0.0005 C4.2235,0.0005 3.9995,0.2235 3.9995,0.5005 L3.9995,7.2925 L1.3535,4.6465 C1.1585,4.4515 0.8415,4.4515 0.6465,4.6465 C0.4515,4.8415 0.4515,5.1585 0.6465,5.3535 L4.1465,8.8535 C4.1925,8.9005 4.2475,8.9345 4.3055,8.9585 C4.3065,8.9595 4.3075,8.9605 4.3085,8.9615 L4.3095,8.9615 C4.3705,8.9875 4.4345,9.0005 4.4995,9.0005 C4.5655,9.0005 4.6295,8.9875 4.6905,8.9615 L4.6915,8.9615 C4.6925,8.9605 4.6935,8.9595 4.6945,8.9585 C4.7525,8.9345 4.8075,8.9005 4.8535,8.8535 L8.3535,5.3535 C8.5485,5.1585 8.5485,4.8415 8.3535,4.6465" id="Fill-9"></path>
                    </g>
                </g>
            </g>
        </g>
    </g>
</svg>