<?xml version="1.0" encoding="UTF-8"?>
<svg viewBox="0 0 17 14" version="1.1" xmlns="http://www.w3.org/2000/svg" xmlns:xlink="http://www.w3.org/1999/xlink">
    <!-- Generator: Sketch 52.3 (67297) - http://www.bohemiancoding.com/sketch -->
    <title>icon-cloud</title>
    <desc>Created with Sketch.</desc>
    <g id="Symbols" stroke="none" stroke-width="1" fill="none" fill-rule="evenodd">
        <g id="top-bar-member" transform="translate(-24.000000, -17.000000)">
            <g id="icon-cloud" transform="translate(24.000000, 15.000000)">
                <polygon id="Fill-1" opacity="0.100000001" points="0 18 18 18 18 0 0 0"></polygon>
                <polygon id="Fill-3" opacity="0.100000001" points="1.125 16.875 16.875 16.875 16.875 1.125 1.125 1.125"></polygon>
                <g id="morefont" opacity="0.400000006" transform="translate(0.000000, 2.000000)" fill="#000000">
                    <path d="M17.0001309,9.69220441 C17.0000871,12.0713031 14.9704033,13.9999165 12.4666889,13.9998987 L4.53336366,13.9998987 C2.48259402,14.0055989 0.684811664,12.6985703 0.154275735,10.8162022 C-0.376260193,8.93383417 0.493436098,6.94796693 2.27270598,5.97897195 C2.27247932,5.9599104 2.26669932,5.94214116 2.26669932,5.92307962 C2.26669932,2.65185307 5.05745485,7.17375204e-16 8.50002626,0 C11.9425977,-7.17375204e-16 14.7333532,2.65185307 14.7333532,5.92307962 C14.7333532,5.94214116 14.7275732,5.95980271 14.7274599,5.97897195 C16.1296537,6.74114683 16.9963525,8.15721378 17.0001309,9.69220441 Z M13.6152126,6.63225832 C13.6598865,6.39335074 13.6856502,6.15162547 13.6922893,5.9090942 C13.6922894,4.15524375 12.7026437,2.53461909 11.0961423,1.65769386 C9.48964082,0.780768625 7.51034942,0.780768625 5.90384799,1.65769386 C4.29734656,2.53461909 3.30770087,4.15524375 3.3077009,5.9090942 C3.31432098,6.15163163 3.34012369,6.39336094 3.38489301,6.63225832 C1.76863269,7.12924187 0.77544232,8.66454095 1.04373166,10.2512854 C1.31202101,11.8380299 2.76195881,13.0040736 4.46154406,12.999899 L12.5384462,12.999899 C14.2382141,13.004329 15.6884452,11.8382534 15.9567871,10.2513412 C16.2251289,8.6644291 15.231716,7.12898687 13.6152126,6.63214923 L13.6152126,6.63225832 Z" id="Shape" fill-rule="nonzero"></path>
                    <path d="M11.4998,5.9999 L8.99995,5.9999 L8.99995,10.4999 C8.99995,10.7760424 8.77609237,10.9999 8.49995,10.9999 C8.22380763,10.9999 7.99995,10.7760424 7.99995,10.4999 L7.99995,5.9999 L5.49995,5.9999 C5.22383524,5.9999 5,5.77606476 5,5.49995 C5,5.22383524 5.22383524,5 5.49995,5 L11.4998,5 C11.7759148,5 11.99975,5.22383524 11.99975,5.49995 C11.99975,5.77606476 11.7759148,5.9999 11.4998,5.9999 Z" id="Path"></path>
                </g>
            </g>
        </g>
    </g>
</svg>