<svg xmlns="http://www.w3.org/2000/svg" viewBox="0 0 16 16">
  <g fill="none" fill-rule="evenodd">
    <rect width="13" height="13" x="1.5" y="1.5" stroke="#5087E5" rx="2"/>
    <path fill="#5087E5" fill-rule="nonzero" d="M12.31,9.75 C12.28,10.07 12.26,10.71 12.23,11.1 C12.2,11.83 11.91,12.05 10.96,12.05 L9.24,12.05 C8.36,12.05 8.07,11.81 8.07,10.93 L8.07,9.07 L8.06,9.07 C7.52,10.58 6.37,11.46 3.99,12.38 L3.54,11.58 C5.6,10.86 6.64,10.19 7.15,9.07 L4.48,9.07 L4.48,6.65 C4.27,6.81 4.05,6.97 3.82,7.13 L3.45,6.39 C4.7,5.52 5.77,4.42 6.5,3.25 L7.24,3.6 C7.11,3.8 6.98,3.99 6.85,4.17 L10.53,4.17 L10.53,4.88 L9.37,6.01 L11.64,6.01 L11.64,9.07 L8.87,9.07 L8.87,10.67 C8.87,11.14 9,11.25 9.5,11.25 L10.73,11.25 C11.34,11.25 11.45,11.16 11.46,10.69 C11.48,10.45 11.5,9.94 11.51,9.59 L12.31,9.75 Z M8.45,6.76 C8.42,7.35 8.36,7.87 8.26,8.33 L10.82,8.33 L10.82,6.76 L8.45,6.76 Z M5.3,6.76 L5.3,8.33 L7.4,8.33 C7.51,7.88 7.57,7.36 7.6,6.76 L5.3,6.76 Z M6.29,4.91 C5.97,5.31 5.62,5.67 5.24,6.01 L8.3,6.01 L9.44,4.91 L6.29,4.91 Z"/>
  </g>
</svg>
