<?xml version="1.0" encoding="utf-8"?>
<!-- Generator: Adobe Illustrator 22.0.1, SVG Export Plug-In . SVG Version: 6.00 Build 0)  -->
<svg version="1.1" id="图层_1" xmlns="http://www.w3.org/2000/svg" xmlns:xlink="http://www.w3.org/1999/xlink" x="0px" y="0px"
	 viewBox="0 0 35 16" style="enable-background:new 0 0 35 16;" xml:space="preserve">
<style type="text/css">
	.st0{fill:#D5D5D5;}
	.st1{enable-background:new    ;}
	.st2{fill:#FFFFFF;}
</style>
<title>msg/vip/expired</title>
<desc>Created with Sketch.</desc>
<g id="msg_x2F_vip_x2F_expired">
	<g id="msg_x2F_vip_x2F_money">
		<g id="Rectangle-16">
			<path class="st0" d="M2,0h31c1.1,0,2,0.9,2,2v12c0,1.1-0.9,2-2,2H2c-1.1,0-2-0.9-2-2V2C0,0.9,0.9,0,2,0z"/>
		</g>
		<g class="st1">
			<path class="st2" d="M4.2,8.5v2.7c0,0.4,0.2,0.6,0.6,0.6h5c0.2,0,0.3-0.1,0.5-0.2c0.2-0.2,0.3-0.8,0.3-1.8l0.9,0.3
				c-0.1,1.3-0.3,2-0.5,2.2c-0.2,0.2-0.6,0.3-1,0.4H4.5c-0.8,0-1.3-0.4-1.3-1.3V6.2h1v1.4h5.2V5.2H2.9V4.3h7.6v4.2H4.2z"/>
			<path class="st2" d="M17.4,12.8c-0.7,0-1.2-0.1-1.7-0.2c-0.4-0.1-0.8-0.4-1.1-0.7c-0.1-0.2-0.3-0.2-0.4-0.2
				c-0.2,0-0.6,0.5-1.1,1.4l-0.7-0.6c0.5-0.8,1-1.3,1.4-1.6V8.1h-1.4V7.2h2.3V11c0.1,0,0.1,0.1,0.2,0.1c0.2,0.3,0.5,0.5,0.8,0.6
				c0.3,0.1,0.8,0.2,1.4,0.2c0.6,0,1.3,0,2.1,0c0.5,0,0.9,0,1.4,0c0.5,0,0.8,0,1.1-0.1l-0.2,1h-2.1C18.7,12.9,18.1,12.8,17.4,12.8z
				 M15,5.5l-0.7,0.7c-0.4-0.5-0.9-1-1.7-1.6l0.6-0.6C14,4.4,14.5,4.9,15,5.5z M17.6,11.5l-0.2-0.9c0.4,0,0.9,0.1,1.3,0.1
				c0.3,0,0.4-0.1,0.4-0.4v-4h-3.8V5.4h3.8V3.8H20v1.5h1.4v0.9H20v4.2c0,0.7-0.3,1-1,1H17.6z M18,8.9l-0.8,0.5
				c-0.3-0.6-0.8-1.2-1.4-2L16.6,7C17.2,7.8,17.7,8.4,18,8.9z"/>
			<path class="st2" d="M24.4,11.2c-0.4,0.7-0.8,1.3-1.3,1.8l-0.7-0.5c0.5-0.5,0.9-1,1.3-1.7L24.4,11.2z M24.1,3.9v1h1.7v-1h0.9v1
				h0.5v0.9h-0.5v4h0.6v0.9h-4.8V9.8h0.6v-4h-0.5V4.9h0.5v-1H24.1z M24.1,5.8v0.8h1.7V5.8H24.1z M25.8,8.2V7.4h-1.7v0.8H25.8z
				 M25.8,9.8V9h-1.7v0.8H25.8z M26.8,12.2c0.6-0.9,0.8-2,0.9-3.3V4.1h3.5V12c0,0.6-0.3,1-1,1h-1L28.9,12c0.4,0,0.7,0,1,0
				c0.2,0,0.3-0.1,0.3-0.4V9.8h-1.7c-0.1,1.3-0.5,2.4-1.2,3.3l-0.7-0.6l-0.6,0.4c-0.2-0.5-0.6-1-1-1.6l0.7-0.5
				C26.2,11.3,26.6,11.8,26.8,12.2z M30.3,5h-1.6v1.5h1.6V5z M28.6,9h1.6V7.4h-1.6V9z"/>
		</g>
	</g>
</g>
</svg>
