<svg xmlns="http://www.w3.org/2000/svg" viewBox="0 0 16 16">
  <path fill="#FAAD14" fill-rule="evenodd" d="M0,7 C0,3.13359375 3.13359375,0 7,0 C10.8664062,0 14,3.13359375 14,7 C14,10.8664063 10.8664062,14 7,14 C3.13359375,14 0,10.8664062 0,7 Z M7.06884094,12 C7.62112569,12 8.06884094,11.5522847 8.06884094,11 C8.06884094,10.4477153 7.62112569,10 7.06884094,10 C6.51655619,10 6.06884094,10.4477153 6.06884094,11 C6.06884094,11.5522847 6.51655619,12 7.06884094,12 Z M7,2 C6.97786574,2 6.95573852,2.00078925 6.9336605,2.00236625 C6.42072441,2.03900455 6.03460876,2.48452261 6.07124705,2.9974587 L6.46437648,8.50127065 C6.48444853,8.78227946 6.71827524,9 7,9 C7.28172476,9 7.51555147,8.78227946 7.53562352,8.50127065 L7.92875295,2.9974587 C7.93032995,2.97538069 7.9311192,2.95325346 7.9311192,2.9311192 C7.9311192,2.41687627 7.51424294,2 7,2 Z" transform="translate(1 1)"/>
</svg>
