<?xml version="1.0" standalone="no"?><!DOCTYPE svg PUBLIC "-//W3C//DTD SVG 1.1//EN" "http://www.w3.org/Graphics/SVG/1.1/DTD/svg11.dtd"><svg t="1550837746490" class="icon" style="" viewBox="0 0 1024 1024" version="1.1" xmlns="http://www.w3.org/2000/svg" p-id="4606" xmlns:xlink="http://www.w3.org/1999/xlink" width="200" height="200"><defs><style type="text/css"></style></defs><path d="M731.7504 896H164.2496C115.8656 896 76.8 858.0608 76.8 811.0592V315.3408C76.8 268.3392 115.8656 230.4 164.2496 230.4h567.5008C780.1344 230.4 819.2 268.3392 819.2 315.3408v495.7184C819.2 858.0608 780.1344 896 731.7504 896zM159.6416 281.6C141.9776 281.6 128 295.168 128 312.32v501.76c0 17.152 13.952 30.72 31.6416 30.72h577.7408c17.664 0 31.6416-13.568 31.6416-30.72V312.32c0-17.152-13.9776-30.72-31.6416-30.72H159.6416zM896 796.6208c-15.8208 0-25.6-12.5184-25.6-27.8784V273.1776C870.4 221.6704 822.0416 179.2 769.024 179.2L207.104 177.6896C191.2832 177.6896 179.2 168.96 179.2 153.6c0-15.36 12.0832-27.1104 27.904-27.1104L769.024 128C853.6832 128 921.6 194.8672 921.6 276.1728V768.768c0 15.36-9.7792 27.8784-25.6 27.8784z m-791.296 0c-10.24 0-19.5328-5.4272-24.192-14.464-7.424-13.568-1.8432-29.824 11.1616-37.0432l465.2032-243.968a27.52 27.52 0 0 1 33.5104 5.4272l111.616 122.88c10.24 10.8544 9.3184 28.0064-1.8432 37.9648-11.1616 9.9328-25.1136 9.0368-35.328-1.8176l-100.5056-106.624L117.76 792.9856a21.8368 21.8368 0 0 1-13.0304 3.6352z m190.72-253.0048c-48.384 0-88.3712-38.8352-88.3712-85.8368 0-46.976 40.0128-85.8368 88.3968-85.8368s88.3712 38.8608 88.3712 85.8368c0 47.0016-39.9872 85.8368-88.3712 85.8368z m0-117.4528c-17.664 0-32.5376 14.464-32.5376 31.616 0 17.152 14.8736 31.6416 32.5632 31.6416 17.664 0 32.5632-14.464 32.5632-31.6416 0-17.152-14.8992-31.616-32.5632-31.616z" fill="#FFFFFF" p-id="4607"></path></svg>