<?xml version="1.0" standalone="no"?><!DOCTYPE svg PUBLIC "-//W3C//DTD SVG 1.1//EN" "http://www.w3.org/Graphics/SVG/1.1/DTD/svg11.dtd"><svg t="1550837738775" class="icon" style="" viewBox="0 0 1024 1024" version="1.1" xmlns="http://www.w3.org/2000/svg" p-id="4482" xmlns:xlink="http://www.w3.org/1999/xlink" width="200" height="200"><defs><style type="text/css"></style></defs><path d="M584.3968 599.3728l271.5392 271.5648a25.6 25.6 0 1 1-36.1984 36.1984L544.9472 632.3712l-51.2512 130.176A51.5072 51.5072 0 0 1 446.336 793.6a51.6096 51.6096 0 0 1-44.9024-25.9584l-83.2-145.8688-168.8832-15.104a51.5584 51.5584 0 0 1-43.4688-32.512 51.0464 51.0464 0 0 1 10.24-53.3504l114.6112-122.9568-37.5808-163.0208c-4.4032-19.0976 2.56-39.0144 17.8688-51.3024a51.84 51.84 0 0 1 53.76-6.784l154.2912 69.8368 145.7408-85.8368a51.8912 51.8912 0 0 1 54.1696 0.9984 51.0976 51.0976 0 0 1 23.3216 49.0752l-19.5584 165.9392 127.488 110.1312c15.2832 13.184 21.4272 34.048 15.616 53.376-5.8112 19.2-22.3488 33.28-41.6 35.9936l-139.8528 23.1168z m-138.496 142.8992c0.0256 0.0512 0.1792 0.128 0.4352 0.128 0.1792 0 0.3072-0.0768 0.128 0.4096l72.6272-184.5248 14.336-2.3552 183.0912-30.2848-147.8144-127.8976 1.6128-13.4912 21.1456-179.3536a0.7168 0.7168 0 0 0-0.6912-0.0256l-168.6016 99.3024-12.1088-5.4784L243.712 223.3856a0.64 0.64 0 0 0-0.64 0.0512l43.648 189.4144-9.2672 9.9584-123.776 132.8128a0.64 0.64 0 0 0 0.256 0.0512l195.5072 17.4848 96.4608 169.1136z" fill="#FFFFFF" p-id="4483"></path></svg>