<?xml version="1.0" standalone="no"?><!DOCTYPE svg PUBLIC "-//W3C//DTD SVG 1.1//EN" "http://www.w3.org/Graphics/SVG/1.1/DTD/svg11.dtd"><svg t="1550837754038" class="icon" style="" viewBox="0 0 1024 1024" version="1.1" xmlns="http://www.w3.org/2000/svg" p-id="4855" xmlns:xlink="http://www.w3.org/1999/xlink" width="200" height="200"><defs><style type="text/css"></style></defs><path d="M844.8 76.8c16.4864 0 25.0368 8.5248 25.6 25.6 0 9.984-5.5296 25.6-25.6 25.6H153.6c-19.2512 0-25.6-15.616-25.6-25.6 0.3584-17.0752 8.8832-25.6 25.6-25.6h691.2zM151.552 204.8h695.296c12.9792 0.0512 23.5008 10.8032 23.552 24.1152v694.1696a23.9104 23.9104 0 0 1-23.552 24.1152H151.552a23.9104 23.9104 0 0 1-23.552-24.1152V228.9152A23.9104 23.9104 0 0 1 151.552 204.8zM179.2 256v640h640V256H179.2z m102.4 486.4h443.136c9.728 0 17.664 8.0896 17.664 18.0736v15.0528c0 9.984-7.936 18.0736-17.664 18.0736H281.6c-5.12 0-25.6-2.7904-25.6-25.6 1.408-17.0752 9.9584-25.6 25.6-25.6z m435.2-153.6c9.7536 0 25.6 8.0896 25.6 18.0736v15.0528c0 9.984-15.8464 18.0736-25.6 18.0736H281.6c-9.7536 0-25.6-8.0896-25.6-18.0736v-15.0528c0-9.984 15.8464-18.0736 25.6-18.0736h435.2z" fill="#FFFFFF" p-id="4856"></path></svg>