<?xml version="1.0" standalone="no"?><!DOCTYPE svg PUBLIC "-//W3C//DTD SVG 1.1//EN" "http://www.w3.org/Graphics/SVG/1.1/DTD/svg11.dtd"><svg t="1550837757427" class="icon" style="" viewBox="0 0 1024 1024" version="1.1" xmlns="http://www.w3.org/2000/svg" p-id="4979" xmlns:xlink="http://www.w3.org/1999/xlink" width="200" height="200"><defs><style type="text/css"></style></defs><path d="M588.8 435.2h128a128 128 0 1 0-128-128v128z m128 51.2h-179.2v-179.2a179.2 179.2 0 1 1 179.2 179.2z m-128 102.4v128a128 128 0 1 0 128-128h-128z m128-51.2a179.2 179.2 0 1 1-179.2 179.2v-179.2h179.2z m-281.6-102.4v-128a128 128 0 1 0-128 128h128z m-128 51.2a179.2 179.2 0 1 1 179.2-179.2v179.2h-179.2z m128 102.4h-128a128 128 0 1 0 128 128v-128z m-128-51.2h179.2v179.2a179.2 179.2 0 1 1-179.2-179.2z" fill="#FFFFFF" p-id="4980"></path></svg>